<?xml version="1.0" encoding="UTF-8" standalone="no"?>
<!-- Created with Inkscape (http://www.inkscape.org/) -->

<svg
   width="66.517067mm"
   height="32.178223mm"
   viewBox="0 0 66.517067 32.178223"
   version="1.1"
   id="svg1"
   inkscape:export-batch-path="C:\Users\bnuuy\Downloads\shopi5"
   inkscape:export-batch-name=""
   xmlns:inkscape="http://www.inkscape.org/namespaces/inkscape"
   xmlns:sodipodi="http://sodipodi.sourceforge.net/DTD/sodipodi-0.dtd"
   xmlns:xlink="http://www.w3.org/1999/xlink"
   xmlns="http://www.w3.org/2000/svg"
   xmlns:svg="http://www.w3.org/2000/svg">
  <sodipodi:namedview
     id="namedview1"
     pagecolor="#ffffff"
     bordercolor="#000000"
     borderopacity="0"
     inkscape:showpageshadow="0"
     inkscape:pageopacity="0"
     inkscape:pagecheckerboard="0"
     inkscape:deskcolor="#505050"
     inkscape:document-units="mm"
     inkscape:zoom="1.0167041"
     inkscape:cx="263.59686"
     inkscape:cy="582.76544"
     inkscape:window-width="1920"
     inkscape:window-height="1009"
     inkscape:window-x="1912"
     inkscape:window-y="-8"
     inkscape:window-maximized="1"
     inkscape:current-layer="layer1"
     inkscape:export-bgcolor="#46464600">
    <inkscape:page
       x="0"
       y="0"
       width="66.517067"
       height="32.178223"
       id="page2"
       margin="0"
       bleed="0" />
  </sodipodi:namedview>
  <defs
     id="defs1">
    <linearGradient
       id="linearGradient236"
       inkscape:collect="always">
      <stop
         style="stop-color:#851eb0;stop-opacity:1;"
         offset="0"
         id="stop235" />
      <stop
         style="stop-color:#000000;stop-opacity:0.30526319;"
         offset="1"
         id="stop236" />
    </linearGradient>
    <rect
       x="217.86084"
       y="353.59354"
       width="236.05688"
       height="58.522434"
       id="rect218-7-7" />
    <linearGradient
       inkscape:collect="always"
       xlink:href="#linearGradient236"
       id="linearGradient234"
       gradientUnits="userSpaceOnUse"
       gradientTransform="matrix(1.2239833,0,0,1.03795,40.406606,10.519194)"
       x1="108.12504"
       y1="100.94347"
       x2="108.7598"
       y2="91.865974" />
  </defs>
  <g
     inkscape:label="cart"
     inkscape:groupmode="layer"
     id="layer1"
     transform="translate(-118.04695,-93.5911)">
    <path
       id="text206-4-9"
       style="font-size:11.2889px;line-height:0;font-family:sans-serif;-inkscape-font-specification:sans-serif;text-align:start;letter-spacing:0.224896px;writing-mode:vertical-lr;direction:ltr;text-anchor:start;white-space:pre;inline-size:9.98236;fill:#000000;fill-opacity:0;stroke:#000000;stroke-width:1.09366;stroke-dasharray:none;stroke-dashoffset:0;stroke-opacity:1"
       d="m 157.60388,94.137928 c -0.75661,0 -1.37814,0.127421 -1.86397,0.382405 -0.49379,0.262484 -0.86022,0.614827 -1.09916,1.0573 -0.23893,0.449973 -0.35811,0.952436 -0.35811,1.507402 v 5.197615 h 1.06298 v -5.197615 c 0,-0.607464 0.17511,-1.106057 0.52555,-1.496033 0.34247,-0.382477 0.90022,-0.573609 1.67277,-0.573609 0.74864,0 1.31032,0.180041 1.68464,0.540019 0.36636,0.359978 0.54932,0.86631 0.54932,1.518771 v 5.208467 h 1.07539 v -5.174878 c 0,-0.892446 -0.27521,-1.612608 -0.82475,-2.160074 -0.55751,-0.539968 -1.3654,-0.80977 -2.42466,-0.80977 z"
       inkscape:export-filename="text206-4-9.png"
       inkscape:export-xdpi="96"
       inkscape:export-ydpi="96" />
    <text
       xml:space="preserve"
       transform="matrix(0.26458333,0,0,0.26458333,59.768812,19.077252)"
       id="text218-9-3"
       style="font-size:53.3333px;line-height:0;font-family:sans-serif;-inkscape-font-specification:sans-serif;text-align:start;letter-spacing:0.85px;writing-mode:lr-tb;direction:ltr;white-space:pre;shape-inside:url(#rect218-7-7);display:inline;fill:#ffffff;fill-opacity:1;stroke:#000000;stroke-width:1.75748;stroke-dasharray:none;stroke-dashoffset:0;stroke-opacity:1"><tspan
         x="217.86133"
         y="368.78708"
         id="tspan2"><tspan
           style="font-style:italic;font-weight:bold;font-family:Arial;-inkscape-font-specification:'Arial Bold Italic'"
           id="tspan1">Shopi</tspan></tspan></text>
    <path
       style="fill:#8234ba;fill-opacity:0.458647;stroke:#532451;stroke-width:0.796736;stroke-dasharray:none;stroke-dashoffset:0;stroke-opacity:1;paint-order:normal"
       d="m 118.88569,118.52264 27.35891,2.41242"
       id="path223-8-6"
       sodipodi:nodetypes="cc" />
    <rect
       style="fill:#ce00db;fill-opacity:0;stroke:#000000;stroke-width:0.948;stroke-dasharray:none;stroke-dashoffset:0;stroke-opacity:1"
       id="rect78-5-5"
       width="24.38376"
       height="17.032082"
       x="159.70627"
       y="102.55475" />
    <path
       id="text8-5-8"
       style="font-size:28.2222px;line-height:0;-inkscape-font-specification:sans-serif;letter-spacing:0.224896px;white-space:pre;inline-size:20.4323;fill:#ffffff;fill-opacity:1;stroke:url(#linearGradient234);stroke-width:1.2004;stroke-dasharray:none"
       d="m 165.66467,97.350563 c -0.0557,0.03663 -0.11101,0.07334 -0.16635,0.109958 -0.0175,0.01246 -0.035,0.02504 -0.0525,0.03754 0.0885,0.06896 0.17625,0.138624 0.26312,0.209187 0.27414,0.227221 0.52563,0.472981 0.7723,0.721425 0.23045,0.245584 0.45935,0.492038 0.68755,0.739125 0.16074,0.169791 0.33211,0.331447 0.51423,0.484884 0.0154,0.01394 0.031,0.02769 0.0468,0.0413 h 9.46046 v -2.343421 z m -0.64769,0.462356 c -0.0856,0.06405 -0.17081,0.128297 -0.25554,0.193095 l -0.82542,8.745606 c 0.0963,0.0543 0.19278,0.10786 0.28969,0.16145 0.0871,-0.11119 0.22014,-0.22202 0.40481,-0.32076 0.394,-0.21063 0.749,-0.46947 1.11069,-0.71767 0.36123,-0.26525 0.71272,-0.53912 1.07273,-0.80563 0.0288,-0.0213 0.057,-0.0408 0.0854,-0.059 l 0.47817,-4.93948 c -0.0312,-0.0259 -0.0616,-0.0525 -0.0917,-0.07938 -0.19789,-0.167677 -0.38584,-0.343911 -0.5604,-0.529404 -0.2241,-0.242662 -0.4495,-0.484335 -0.67553,-0.725716 -0.23374,-0.23545 -0.47102,-0.468308 -0.73054,-0.683878 -0.0996,-0.08099 -0.20036,-0.160446 -0.30235,-0.239224 z m 5.60974,7.622971 c -0.80601,0 -1.54279,0.0388 -2.21062,0.11693 -0.24833,0.029 -0.47743,0.0568 -0.68755,0.0831 -0.0481,0.0509 -0.10587,0.10191 -0.17394,0.15233 -0.37057,0.27433 -0.73174,0.55754 -1.10499,0.82924 -0.41288,0.28328 -0.8177,0.58177 -1.27957,0.80671 0.1844,0.0983 0.36909,0.19647 0.55345,0.29446 0.13083,0.0679 0.2614,0.13587 0.39215,0.20383 0.37669,-0.0576 0.80961,-0.11513 1.29855,-0.17271 0.82904,-0.0976 1.56645,-0.14644 2.21126,-0.14644 2.1417,0 3.70741,0.37089 4.69766,1.113 0.99025,0.72256 1.48513,1.76754 1.48513,3.13457 0,1.54279 -0.56417,2.68535 -1.6926,3.42743 -1.10539,0.72257 -2.56781,1.08347 -4.3871,1.08347 -1.08235,0 -2.22183,-0.11697 -3.41935,-0.35132 -1.17448,-0.25387 -2.17665,-0.59538 -3.00569,-1.02501 v 2.43085 c 0.75996,0.37105 1.69283,0.65434 2.79823,0.84963 1.12842,0.19528 2.32606,0.29286 3.59266,0.29286 2.90165,0 5.15837,-0.61482 6.77039,-1.84514 1.63507,-1.24984 2.45288,-2.95894 2.45288,-5.12667 0,-1.95289 -0.74852,-3.46633 -2.24541,-4.54042 -1.49688,-1.07409 -3.51236,-1.61074 -6.04554,-1.61074 z" />
    <path
       style="fill:none;fill-rule:evenodd;stroke:#000000;stroke-width:0.264583px;stroke-linecap:butt;stroke-linejoin:miter;stroke-opacity:1"
       d="m 159.99232,103.88176 23.81163,-0.13012"
       id="path79-4-2"
       inkscape:connector-type="polyline"
       inkscape:connector-curvature="0" />
    <path
       sodipodi:type="spiral"
       style="fill:none;fill-rule:evenodd;stroke:#000000;stroke-width:0.264583"
       id="path82-9-5"
       sodipodi:cx="120.09906"
       sodipodi:cy="114.04857"
       sodipodi:expansion="1"
       sodipodi:revolution="2.8440001"
       sodipodi:radius="1.392325"
       sodipodi:argument="-17.216534"
       sodipodi:t0="0"
       d="m 120.09906,114.04857 c -0.005,0.0735 -0.10133,0.0301 -0.12215,-0.008 -0.0564,-0.10216 0.0408,-0.21247 0.13737,-0.2367 0.17265,-0.0433 0.32705,0.10358 0.35124,0.26714 0.0355,0.24004 -0.16668,0.44371 -0.3969,0.46579 -0.30686,0.0294 -0.56119,-0.22986 -0.58033,-0.52668 -0.0241,-0.37351 0.29305,-0.67906 0.65644,-0.69487 0.44011,-0.0191 0.79717,0.35625 0.80941,0.78621 0.0144,0.50668 -0.41945,0.91542 -0.91597,0.92396 -0.57324,0.01 -1.03378,-0.48267 -1.0385,-1.04574 -0.005,-0.6398 0.54587,-1.1522 1.1755,-1.15305 0.70634,-9.5e-4 1.27066,0.60909 1.26759,1.30527 -0.001,0.27076 -0.0856,0.53825 -0.2377,0.76205"
       transform="translate(58.857985,8.7979181)" />
    <path
       sodipodi:type="spiral"
       style="fill:none;fill-rule:evenodd;stroke:#000000;stroke-width:0.264583"
       id="path83-1-4"
       sodipodi:cx="105.33065"
       sodipodi:cy="114.04857"
       sodipodi:expansion="1"
       sodipodi:revolution="2.8440001"
       sodipodi:radius="1.3724228"
       sodipodi:argument="-17.320829"
       sodipodi:t0="0"
       d="m 105.33065,114.04857 c 0.003,0.0725 -0.0963,0.0399 -0.12053,0.005 -0.0658,-0.0944 0.0182,-0.21248 0.11038,-0.24614 0.16481,-0.0602 0.33125,0.068 0.37176,0.22585 0.0594,0.23167 -0.11788,0.45209 -0.34131,0.49736 -0.29781,0.0603 -0.57375,-0.16775 -0.62298,-0.45677 -0.0619,-0.36371 0.21761,-0.69579 0.57224,-0.74858 0.4295,-0.0639 0.81806,0.26744 0.87419,0.68769 0.0661,0.49525 -0.31728,0.94048 -0.80316,0.9998 -0.56097,0.0685 -1.06299,-0.36709 -1.12541,-0.91862 -0.0709,-0.62667 0.41692,-1.18557 1.03408,-1.25101 0.69237,-0.0734 1.3082,0.46672 1.37663,1.14954 0.0266,0.26556 -0.0287,0.53646 -0.15483,0.77146"
       transform="translate(58.857985,8.7979181)" />
    <path
       style="fill:#ff6200;fill-opacity:1;fill-rule:evenodd;stroke:#000000;stroke-width:0.264583px;stroke-linecap:butt;stroke-linejoin:miter;stroke-opacity:1"
       d="m 158.00803,121.74048 3.57825,2.47224"
       id="path85-2-4"
       inkscape:connector-type="polyline"
       inkscape:connector-curvature="0" />
    <path
       style="fill:none;fill-rule:evenodd;stroke:#000000;stroke-width:0.264583px;stroke-linecap:butt;stroke-linejoin:miter;stroke-opacity:1"
       d="m 158.91886,125.05849 2.99271,0.45541"
       id="path86-5-1"
       inkscape:connector-type="polyline"
       inkscape:connector-curvature="0" />
    <path
       style="fill:none;fill-rule:evenodd;stroke:#000000;stroke-width:0.264583px;stroke-linecap:butt;stroke-linejoin:miter;stroke-opacity:1"
       d="m 174.20774,122.06578 2.14695,2.27706"
       id="path87-08-6"
       inkscape:connector-type="polyline"
       inkscape:connector-curvature="0" />
    <path
       style="fill:#ce00db;fill-opacity:0;stroke:#000000;stroke-width:1.065;stroke-dasharray:none;stroke-dashoffset:0;stroke-opacity:1"
       id="path80-3-1"
       sodipodi:type="arc"
       sodipodi:cx="164.41635"
       sodipodi:cy="122.94407"
       sodipodi:rx="2.2445383"
       sodipodi:ry="2.2445383"
       sodipodi:start="5.8354861"
       sodipodi:end="5.4905534"
       sodipodi:arc-type="arc"
       d="m 166.43968,121.97242 a 2.2445383,2.2445383 0 0 1 -0.88103,2.90378 2.2445383,2.2445383 0 0 1 -2.96886,-0.62767 2.2445383,2.2445383 0 0 1 0.36963,-3.01189 2.2445383,2.2445383 0 0 1 3.03254,0.10886"
       sodipodi:open="true" />
    <path
       style="fill:#ce00db;fill-opacity:0;stroke:#000000;stroke-width:1.065;stroke-dasharray:none;stroke-dashoffset:0;stroke-opacity:1"
       id="path80-8-9-6"
       sodipodi:type="arc"
       sodipodi:cx="179.22882"
       sodipodi:cy="122.91881"
       sodipodi:rx="2.2445383"
       sodipodi:ry="2.2445383"
       sodipodi:start="5.8354861"
       sodipodi:end="5.4905534"
       sodipodi:arc-type="arc"
       d="m 181.25215,121.94716 a 2.2445383,2.2445383 0 0 1 -0.88103,2.90377 2.2445383,2.2445383 0 0 1 -2.96886,-0.62766 2.2445383,2.2445383 0 0 1 0.36963,-3.01189 2.2445383,2.2445383 0 0 1 3.03254,0.10886"
       sodipodi:open="true" />
    <path
       style="fill:none;fill-rule:evenodd;stroke:#000000;stroke-width:0.264583px;stroke-linecap:butt;stroke-linejoin:miter;stroke-opacity:1"
       d="m 172.77644,124.27778 4.03366,1.36624"
       id="path88-3-3"
       inkscape:connector-type="polyline"
       inkscape:connector-curvature="0" />
  </g>
</svg>
