<?xml version="1.0" encoding="UTF-8" standalone="no"?>
<!-- Created with Inkscape (http://www.inkscape.org/) -->

<svg
   width="86.305511mm"
   height="47.009827mm"
   viewBox="0 0 86.305511 47.009827"
   version="1.1"
   id="svg1"
   inkscape:export-batch-path="C:\Users\bnuuy\Downloads\shopi5"
   inkscape:export-batch-name=""
   inkscape:version="1.4.2 (f4327f4, 2025-05-13)"
   sodipodi:docname="shopify_logotipos.svg"
   inkscape:export-filename="shopify_logotipos.svg"
   inkscape:export-xdpi="96"
   inkscape:export-ydpi="96"
   xmlns:inkscape="http://www.inkscape.org/namespaces/inkscape"
   xmlns:sodipodi="http://sodipodi.sourceforge.net/DTD/sodipodi-0.dtd"
   xmlns:xlink="http://www.w3.org/1999/xlink"
   xmlns="http://www.w3.org/2000/svg"
   xmlns:svg="http://www.w3.org/2000/svg">
  <sodipodi:namedview
     id="namedview1"
     pagecolor="#ffffff"
     bordercolor="#000000"
     borderopacity="0"
     inkscape:showpageshadow="0"
     inkscape:pageopacity="0"
     inkscape:pagecheckerboard="0"
     inkscape:deskcolor="#505050"
     inkscape:document-units="mm"
     inkscape:zoom="1.0167041"
     inkscape:cx="295.56289"
     inkscape:cy="258.18722"
     inkscape:window-width="1920"
     inkscape:window-height="1009"
     inkscape:window-x="1912"
     inkscape:window-y="-8"
     inkscape:window-maximized="1"
     inkscape:current-layer="layer1"
     inkscape:export-bgcolor="#46464600"
     showgrid="false" />
  <defs
     id="defs1">
    <rect
       x="217.86084"
       y="353.59354"
       width="236.05688"
       height="58.522434"
       id="rect218" />
    <linearGradient
       id="linearGradient26"
       inkscape:collect="always">
      <stop
         style="stop-color:#851eb0;stop-opacity:1;"
         offset="0"
         id="stop27" />
      <stop
         style="stop-color:#000000;stop-opacity:0.30526316;"
         offset="1"
         id="stop28" />
    </linearGradient>
    <linearGradient
       inkscape:collect="always"
       xlink:href="#linearGradient26"
       id="linearGradient28"
       x1="108.12504"
       y1="100.94347"
       x2="108.7598"
       y2="91.865974"
       gradientUnits="userSpaceOnUse"
       gradientTransform="matrix(1.2239833,0,0,1.03795,-59.176393,-36.691868)" />
  </defs>
  <rect
     style="opacity:1;fill:#ffffff;fill-opacity:1;stroke:#ffffff;stroke-width:0.947999;stroke-dasharray:none;stroke-dashoffset:0;stroke-opacity:1;paint-order:normal"
     id="rect231"
     width="85.357513"
     height="46.061829"
     x="0.47399879"
     y="0.47400019"
     inkscape:export-filename="rect231.svg"
     inkscape:export-xdpi="96"
     inkscape:export-ydpi="96" />
  <g
     inkscape:groupmode="layer"
     id="layer3"
     inkscape:label="shopi_text"
     transform="translate(-10.976401,-40.64334)">
    <text
       xml:space="preserve"
       transform="matrix(0.26458333,0,0,0.26458333,-39.814187,-28.133809)"
       id="text218"
       style="font-size:53.3333px;line-height:0;font-family:sans-serif;-inkscape-font-specification:sans-serif;text-align:start;letter-spacing:0.85px;writing-mode:lr-tb;direction:ltr;white-space:pre;shape-inside:url(#rect218);opacity:1;fill:#8236b8;fill-opacity:0.458647;stroke:#000000;stroke-width:1.75748;stroke-dasharray:none;stroke-dashoffset:0;stroke-opacity:1"><tspan
         x="217.86133"
         y="368.78708"
         id="tspan6176"><tspan
           style="font-style:italic;font-weight:bold;font-family:Arial;-inkscape-font-specification:'Arial Bold Italic'"
           id="tspan6174">Shopi</tspan></tspan></text>
    <path
       style="opacity:1;fill:#8234ba;fill-opacity:0.458647;stroke:#532451;stroke-width:0.796736;stroke-dasharray:none;stroke-dashoffset:0;stroke-opacity:1;paint-order:normal"
       d="m 19.302689,71.311576 27.358909,2.41242"
       id="path223"
       sodipodi:nodetypes="cc" />
  </g>
  <path
     id="text206"
     style="font-size:11.2889px;line-height:0;font-family:sans-serif;-inkscape-font-specification:sans-serif;text-align:start;letter-spacing:0.224896px;writing-mode:vertical-lr;direction:ltr;text-anchor:start;white-space:pre;inline-size:9.98236;opacity:1;fill:#000000;fill-opacity:0;stroke:#000000;stroke-width:1.09366;stroke-dasharray:none;stroke-dashoffset:0;stroke-opacity:1"
     d="m 47.044472,6.2835271 c -0.756613,0 -1.378143,0.127421 -1.863968,0.382405 -0.493795,0.262484 -0.860226,0.614827 -1.099159,1.0573 -0.238933,0.449973 -0.358113,0.952436 -0.358113,1.507402 v 5.1976149 h 1.062984 V 9.2306341 c 0,-0.607464 0.17511,-1.106057 0.525545,-1.496033 0.342468,-0.382477 0.900225,-0.573609 1.672766,-0.573609 0.74865,0 1.310328,0.180041 1.684648,0.540019 0.36636,0.359978 0.54932,0.86631 0.54932,1.518771 v 5.2084669 h 1.07539 V 9.2533711 c 0,-0.892446 -0.27521,-1.612608 -0.82475,-2.160074 -0.55751,-0.539968 -1.365404,-0.80977 -2.424663,-0.80977 z" />
  <g
     inkscape:label="cart"
     inkscape:groupmode="layer"
     id="layer1"
     transform="translate(-10.976401,-40.64334)">
    <rect
       style="opacity:1;fill:#ce00db;fill-opacity:0;stroke:#000000;stroke-width:0.948;stroke-dasharray:none;stroke-dashoffset:0;stroke-opacity:1"
       id="rect78"
       width="24.38376"
       height="17.032082"
       x="60.123257"
       y="55.343685" />
    <path
       id="text8"
       style="font-size:28.2222px;line-height:0;-inkscape-font-specification:sans-serif;letter-spacing:0.224896px;white-space:pre;inline-size:20.4323;opacity:1;fill:#ce00db;fill-opacity:1;stroke:url(#linearGradient28);stroke-width:1.2004;stroke-dasharray:none"
       d="m 66.081666,50.139502 c -0.0557,0.03663 -0.11101,0.07334 -0.16635,0.109958 -0.0175,0.01246 -0.035,0.02504 -0.0525,0.03754 0.0885,0.06896 0.17625,0.138624 0.26312,0.209187 0.27414,0.227221 0.52563,0.472981 0.7723,0.721425 0.23045,0.245584 0.45935,0.492038 0.68755,0.739125 0.16074,0.169791 0.33211,0.331447 0.51423,0.484884 0.0154,0.01394 0.031,0.02769 0.0468,0.0413 h 9.46046 V 50.1395 Z m -0.64769,0.462356 c -0.0856,0.06405 -0.17081,0.128297 -0.25554,0.193095 l -0.82542,8.745603 c 0.0963,0.0543 0.19278,0.107862 0.28969,0.161449 0.0871,-0.111185 0.22014,-0.222019 0.40481,-0.320752 0.394,-0.210638 0.749,-0.469475 1.11069,-0.71767 0.36123,-0.265259 0.71272,-0.539126 1.07273,-0.805636 0.0288,-0.02125 0.057,-0.04083 0.0854,-0.059 l 0.47817,-4.939482 c -0.0312,-0.02592 -0.0616,-0.05248 -0.0917,-0.07938 -0.19789,-0.167677 -0.38584,-0.343911 -0.5604,-0.529404 -0.2241,-0.242662 -0.4495,-0.484335 -0.67553,-0.725716 -0.23374,-0.23545 -0.47102,-0.468308 -0.73054,-0.683878 -0.0996,-0.08099 -0.20036,-0.160446 -0.30235,-0.239224 z m 5.60974,7.622969 c -0.80601,0 -1.54279,0.03882 -2.21062,0.11693 -0.24833,0.02904 -0.47743,0.0568 -0.68755,0.08314 -0.0481,0.05092 -0.10587,0.101916 -0.17394,0.152331 -0.37057,0.274332 -0.73174,0.557543 -1.10499,0.829237 -0.41288,0.283288 -0.8177,0.581775 -1.27957,0.806709 0.1844,0.09833 0.36909,0.196475 0.55345,0.294469 0.13083,0.06792 0.2614,0.13587 0.39215,0.203824 0.37669,-0.05756 0.80961,-0.115128 1.29855,-0.172713 0.82904,-0.09764 1.56645,-0.146431 2.21126,-0.146431 2.1417,0 3.70741,0.370885 4.69766,1.112988 0.99025,0.722565 1.48513,1.767545 1.48513,3.134575 0,1.54279 -0.56417,2.68535 -1.6926,3.42744 -1.10539,0.72257 -2.56781,1.08347 -4.3871,1.08347 -1.08235,0 -2.22183,-0.11697 -3.41935,-0.35132 -1.17448,-0.25387 -2.17665,-0.59538 -3.00569,-1.02501 v 2.43085 c 0.75996,0.37104 1.69283,0.65433 2.79823,0.84962 1.12842,0.19528 2.32606,0.29286 3.59266,0.29286 2.90165,0 5.15837,-0.61482 6.77039,-1.84513 1.63507,-1.24984 2.45288,-2.95895 2.45288,-5.12668 0,-1.95289 -0.74852,-3.466335 -2.24541,-4.54042 -1.49688,-1.074086 -3.51236,-1.610737 -6.04554,-1.610737 z" />
    <path
       style="opacity:1;fill:none;fill-rule:evenodd;stroke:#000000;stroke-width:0.264583px;stroke-linecap:butt;stroke-linejoin:miter;stroke-opacity:1"
       d="m 60.409316,56.6707 23.81163,-0.130117"
       id="path79"
       inkscape:connector-type="polyline"
       inkscape:connector-curvature="0" />
    <path
       sodipodi:type="spiral"
       style="opacity:1;fill:none;fill-rule:evenodd;stroke:#000000;stroke-width:0.264583"
       id="path82"
       sodipodi:cx="120.09906"
       sodipodi:cy="114.04857"
       sodipodi:expansion="1"
       sodipodi:revolution="2.8440001"
       sodipodi:radius="1.392325"
       sodipodi:argument="-17.216534"
       sodipodi:t0="0"
       d="m 120.09906,114.04857 c -0.005,0.0735 -0.10133,0.0301 -0.12215,-0.008 -0.0564,-0.10216 0.0408,-0.21247 0.13737,-0.2367 0.17265,-0.0433 0.32705,0.10358 0.35124,0.26714 0.0355,0.24004 -0.16668,0.44371 -0.3969,0.46579 -0.30686,0.0294 -0.56119,-0.22986 -0.58033,-0.52668 -0.0241,-0.37351 0.29305,-0.67906 0.65644,-0.69487 0.44011,-0.0191 0.79717,0.35625 0.80941,0.78621 0.0144,0.50668 -0.41945,0.91542 -0.91597,0.92396 -0.57324,0.01 -1.03378,-0.48267 -1.0385,-1.04574 -0.005,-0.6398 0.54587,-1.1522 1.1755,-1.15305 0.70634,-9.5e-4 1.27066,0.60909 1.26759,1.30527 -0.001,0.27076 -0.0856,0.53825 -0.2377,0.76205"
       transform="translate(-40.725014,-38.413144)" />
    <path
       sodipodi:type="spiral"
       style="opacity:1;fill:none;fill-rule:evenodd;stroke:#000000;stroke-width:0.264583"
       id="path83"
       sodipodi:cx="105.33065"
       sodipodi:cy="114.04857"
       sodipodi:expansion="1"
       sodipodi:revolution="2.8440001"
       sodipodi:radius="1.3724228"
       sodipodi:argument="-17.320829"
       sodipodi:t0="0"
       d="m 105.33065,114.04857 c 0.003,0.0725 -0.0963,0.0399 -0.12053,0.005 -0.0658,-0.0944 0.0182,-0.21248 0.11038,-0.24614 0.16481,-0.0602 0.33125,0.068 0.37176,0.22585 0.0594,0.23167 -0.11788,0.45209 -0.34131,0.49736 -0.29781,0.0603 -0.57375,-0.16775 -0.62298,-0.45677 -0.0619,-0.36371 0.21761,-0.69579 0.57224,-0.74858 0.4295,-0.0639 0.81806,0.26744 0.87419,0.68769 0.0661,0.49525 -0.31728,0.94048 -0.80316,0.9998 -0.56097,0.0685 -1.06299,-0.36709 -1.12541,-0.91862 -0.0709,-0.62667 0.41692,-1.18557 1.03408,-1.25101 0.69237,-0.0734 1.3082,0.46672 1.37663,1.14954 0.0266,0.26556 -0.0287,0.53646 -0.15483,0.77146"
       transform="translate(-40.725014,-38.413144)" />
    <path
       style="opacity:1;fill:#ff6200;fill-opacity:1;fill-rule:evenodd;stroke:#000000;stroke-width:0.264583px;stroke-linecap:butt;stroke-linejoin:miter;stroke-opacity:1"
       d="m 58.425023,74.529416 3.578253,2.47225"
       id="path85"
       inkscape:connector-type="polyline"
       inkscape:connector-curvature="0" />
    <path
       style="opacity:1;fill:none;fill-rule:evenodd;stroke:#000000;stroke-width:0.264583px;stroke-linecap:butt;stroke-linejoin:miter;stroke-opacity:1"
       d="m 59.335856,77.847436 2.99271,0.45541"
       id="path86"
       inkscape:connector-type="polyline"
       inkscape:connector-curvature="0" />
    <path
       style="opacity:1;fill:none;fill-rule:evenodd;stroke:#000000;stroke-width:0.264583px;stroke-linecap:butt;stroke-linejoin:miter;stroke-opacity:1"
       d="m 74.624736,74.854716 2.14695,2.27707"
       id="path87"
       inkscape:connector-type="polyline"
       inkscape:connector-curvature="0" />
    <path
       style="opacity:1;fill:#ce00db;fill-opacity:0;stroke:#000000;stroke-width:1.065;stroke-dasharray:none;stroke-dashoffset:0;stroke-opacity:1"
       id="path80"
       sodipodi:type="arc"
       sodipodi:cx="64.833344"
       sodipodi:cy="75.733009"
       sodipodi:rx="2.2445383"
       sodipodi:ry="2.2445383"
       sodipodi:start="5.8354861"
       sodipodi:end="5.4905534"
       sodipodi:arc-type="arc"
       d="m 66.856672,74.761365 a 2.2445383,2.2445383 0 0 1 -0.881033,2.903771 2.2445383,2.2445383 0 0 1 -2.968861,-0.627669 2.2445383,2.2445383 0 0 1 0.369639,-3.011888 2.2445383,2.2445383 0 0 1 3.032532,0.108863"
       sodipodi:open="true" />
    <path
       style="opacity:1;fill:#ce00db;fill-opacity:0;stroke:#000000;stroke-width:1.065;stroke-dasharray:none;stroke-dashoffset:0;stroke-opacity:1"
       id="path80-8"
       sodipodi:type="arc"
       sodipodi:cx="79.645828"
       sodipodi:cy="75.707741"
       sodipodi:rx="2.2445383"
       sodipodi:ry="2.2445383"
       sodipodi:start="5.8354861"
       sodipodi:end="5.4905534"
       sodipodi:arc-type="arc"
       d="m 81.669157,74.736097 a 2.2445383,2.2445383 0 0 1 -0.881033,2.90377 2.2445383,2.2445383 0 0 1 -2.968861,-0.627668 2.2445383,2.2445383 0 0 1 0.369639,-3.011888 2.2445383,2.2445383 0 0 1 3.032532,0.108862"
       sodipodi:open="true" />
    <path
       style="opacity:1;fill:none;fill-rule:evenodd;stroke:#000000;stroke-width:0.264583px;stroke-linecap:butt;stroke-linejoin:miter;stroke-opacity:1"
       d="m 73.193436,77.066726 4.03366,1.36624"
       id="path88"
       inkscape:connector-type="polyline"
       inkscape:connector-curvature="0" />
  </g>
</svg>
