<?xml version="1.0" encoding="UTF-8" standalone="no"?>
<!-- Created with Inkscape (http://www.inkscape.org/) -->

<svg
   width="210mm"
   height="297mm"
   viewBox="0 0 210 297"
   version="1.1"
   id="svg1"
   inkscape:export-batch-path="C:\Users\bnuuy\Downloads\shopi5"
   inkscape:export-batch-name=""
   inkscape:version="1.2.2 (b0a8486541, 2022-12-01)"
   sodipodi:docname="shopify_logotipos.svg"
   inkscape:export-filename="shopify_logotipos.svg"
   inkscape:export-xdpi="96"
   inkscape:export-ydpi="96"
   xmlns:inkscape="http://www.inkscape.org/namespaces/inkscape"
   xmlns:sodipodi="http://sodipodi.sourceforge.net/DTD/sodipodi-0.dtd"
   xmlns:xlink="http://www.w3.org/1999/xlink"
   xmlns="http://www.w3.org/2000/svg"
   xmlns:svg="http://www.w3.org/2000/svg">
  <sodipodi:namedview
     id="namedview1"
     pagecolor="#ffffff"
     bordercolor="#000000"
     borderopacity="0"
     inkscape:showpageshadow="0"
     inkscape:pageopacity="0"
     inkscape:pagecheckerboard="0"
     inkscape:deskcolor="#505050"
     inkscape:document-units="mm"
     inkscape:zoom="1.0167041"
     inkscape:cx="344.24962"
     inkscape:cy="156.87947"
     inkscape:window-width="1600"
     inkscape:window-height="828"
     inkscape:window-x="0"
     inkscape:window-y="0"
     inkscape:window-maximized="1"
     inkscape:current-layer="layer1"
     inkscape:export-bgcolor="#46464600"
     showgrid="false" />
  <defs
     id="defs1">
    <linearGradient
       id="linearGradient236"
       inkscape:collect="always">
      <stop
         style="stop-color:#851eb0;stop-opacity:1;"
         offset="0"
         id="stop235" />
      <stop
         style="stop-color:#000000;stop-opacity:0.30526319;"
         offset="1"
         id="stop236" />
    </linearGradient>
    <rect
       x="376.70745"
       y="322.11929"
       width="147.53555"
       height="129.3395"
       id="rect220" />
    <rect
       x="197.69764"
       y="335.88928"
       width="323.59465"
       height="118.02844"
       id="rect219" />
    <rect
       x="217.86084"
       y="353.59355"
       width="236.05689"
       height="58.522436"
       id="rect218" />
    <linearGradient
       id="linearGradient26"
       inkscape:collect="always">
      <stop
         style="stop-color:#851eb0;stop-opacity:1;"
         offset="0"
         id="stop27" />
      <stop
         style="stop-color:#000000;stop-opacity:0.30526316;"
         offset="1"
         id="stop28" />
    </linearGradient>
    <rect
       x="193.76336"
       y="356.05247"
       width="229.17189"
       height="141.63413"
       id="rect7" />
    <linearGradient
       inkscape:collect="always"
       xlink:href="#linearGradient26"
       id="linearGradient28"
       x1="108.12504"
       y1="100.94347"
       x2="108.7598"
       y2="91.865974"
       gradientUnits="userSpaceOnUse"
       gradientTransform="matrix(1.2239833,0,0,1.03795,-59.176393,-36.691868)" />
    <rect
       x="217.86084"
       y="353.59354"
       width="236.05688"
       height="58.522434"
       id="rect218-2" />
    <rect
       x="217.86084"
       y="353.59354"
       width="236.05688"
       height="58.522434"
       id="rect218-2-3" />
    <rect
       x="217.86084"
       y="353.59354"
       width="236.05688"
       height="58.522434"
       id="rect218-2-8" />
    <rect
       x="217.86084"
       y="353.59354"
       width="236.05688"
       height="58.522434"
       id="rect218-2-8-9" />
    <rect
       x="217.86084"
       y="353.59354"
       width="236.05688"
       height="58.522434"
       id="rect218-2-8-8" />
    <rect
       x="217.86084"
       y="353.59354"
       width="236.05688"
       height="58.522434"
       id="rect218-2-8-83" />
    <rect
       x="217.86084"
       y="353.59354"
       width="236.05688"
       height="58.522434"
       id="rect218-2-8-83-8" />
    <rect
       x="217.86084"
       y="353.59354"
       width="236.05688"
       height="58.522434"
       id="rect218-2-8-83-7" />
    <rect
       x="217.86084"
       y="353.59354"
       width="236.05688"
       height="58.522434"
       id="rect218-8" />
    <linearGradient
       inkscape:collect="always"
       xlink:href="#linearGradient26"
       id="linearGradient232"
       gradientUnits="userSpaceOnUse"
       gradientTransform="matrix(1.2239833,0,0,1.03795,40.36622,-37.293591)"
       x1="108.12504"
       y1="100.94347"
       x2="108.7598"
       y2="91.865974" />
    <rect
       x="217.86084"
       y="353.59354"
       width="236.05688"
       height="58.522434"
       id="rect218-7" />
    <linearGradient
       inkscape:collect="always"
       xlink:href="#linearGradient26"
       id="linearGradient233"
       gradientUnits="userSpaceOnUse"
       gradientTransform="matrix(1.2239833,0,0,1.03795,-57.128612,13.04608)"
       x1="108.12504"
       y1="100.94347"
       x2="108.7598"
       y2="91.865974" />
    <rect
       x="217.86084"
       y="353.59354"
       width="236.05688"
       height="58.522434"
       id="rect218-7-7" />
    <linearGradient
       inkscape:collect="always"
       xlink:href="#linearGradient236"
       id="linearGradient234"
       gradientUnits="userSpaceOnUse"
       gradientTransform="matrix(1.2239833,0,0,1.03795,40.406606,10.519194)"
       x1="108.12504"
       y1="100.94347"
       x2="108.7598"
       y2="91.865974" />
    <linearGradient
       inkscape:collect="always"
       xlink:href="#linearGradient236"
       id="linearGradient237"
       gradientUnits="userSpaceOnUse"
       gradientTransform="matrix(1.2239833,0,0,1.03795,-70.161201,63.013536)"
       x1="108.12504"
       y1="100.94347"
       x2="108.7598"
       y2="91.865974" />
    <linearGradient
       inkscape:collect="always"
       xlink:href="#linearGradient26"
       id="linearGradient238"
       gradientUnits="userSpaceOnUse"
       gradientTransform="matrix(1.2239833,0,0,1.03795,20.111978,62.104366)"
       x1="108.12504"
       y1="100.94347"
       x2="108.7598"
       y2="91.865974" />
    <rect
       x="217.86084"
       y="353.59354"
       width="236.05688"
       height="58.522434"
       id="rect218-7-73" />
    <rect
       x="217.86084"
       y="353.59354"
       width="236.05688"
       height="58.522434"
       id="rect218-7-7-7" />
  </defs>
  <rect
     style="opacity:1;fill:#ffffff;fill-opacity:1;stroke:#ffffff;stroke-width:0.947999;stroke-dasharray:none;stroke-dashoffset:0;stroke-opacity:1;paint-order:normal"
     id="rect231"
     width="85.357513"
     height="46.061829"
     x="11.450399"
     y="41.11734"
     inkscape:export-filename="rect231.png"
     inkscape:export-xdpi="96"
     inkscape:export-ydpi="96" />
  <g
     inkscape:groupmode="layer"
     id="layer3"
     inkscape:label="shopi_text">
    <text
       xml:space="preserve"
       transform="matrix(0.26458333,0,0,0.26458333,-39.814187,-28.133809)"
       id="text218"
       style="font-size:53.3333px;line-height:0;font-family:sans-serif;-inkscape-font-specification:sans-serif;text-align:start;letter-spacing:0.85px;writing-mode:lr-tb;direction:ltr;white-space:pre;shape-inside:url(#rect218);fill:#8236b8;fill-opacity:0.458647;stroke:#000000;stroke-width:1.75748;stroke-dasharray:none;stroke-dashoffset:0;stroke-opacity:1;opacity:1"><tspan
         x="217.86133"
         y="368.78708"
         id="tspan2930"><tspan
           style="font-style:italic;font-weight:bold;font-family:Arial;-inkscape-font-specification:'Arial Bold Italic'"
           id="tspan2928">Shopi</tspan></tspan></text>
    <path
       style="opacity:1;fill:#8234ba;fill-opacity:0.458647;stroke:#532451;stroke-width:0.796736;stroke-dasharray:none;stroke-dashoffset:0;stroke-opacity:1;paint-order:normal"
       d="m 19.302689,71.311576 27.358909,2.41242"
       id="path223"
       sodipodi:nodetypes="cc" />
  </g>
  <path
     id="text206"
     style="font-size:11.2889px;line-height:0;font-family:sans-serif;-inkscape-font-specification:sans-serif;text-align:start;letter-spacing:0.224896px;writing-mode:vertical-lr;direction:ltr;text-anchor:start;white-space:pre;inline-size:9.98236;fill:#000000;fill-opacity:0;stroke:#000000;stroke-width:1.09366;stroke-dasharray:none;stroke-dashoffset:0;stroke-opacity:1;opacity:1"
     d="m 58.020873,46.926867 c -0.756613,0 -1.378143,0.127421 -1.863968,0.382405 -0.493795,0.262484 -0.860226,0.614827 -1.099159,1.0573 -0.238933,0.449973 -0.358113,0.952436 -0.358113,1.507402 v 5.197615 h 1.062984 v -5.197615 c 0,-0.607464 0.17511,-1.106057 0.525545,-1.496033 0.342468,-0.382477 0.900225,-0.573609 1.672766,-0.573609 0.74865,0 1.310328,0.180041 1.684648,0.540019 0.36636,0.359978 0.54932,0.86631 0.54932,1.518771 v 5.208467 h 1.07539 v -5.174878 c 0,-0.892446 -0.27521,-1.612608 -0.82475,-2.160074 -0.55751,-0.539968 -1.365404,-0.80977 -2.424663,-0.80977 z" />
  <g
     inkscape:label="cart"
     inkscape:groupmode="layer"
     id="layer1">
    <rect
       style="fill:#464646;fill-opacity:1;stroke:#404040;stroke-width:0.947999;stroke-dasharray:none;stroke-dashoffset:0;stroke-opacity:1;paint-order:normal"
       id="rect231-2"
       width="85.357513"
       height="46.061829"
       x="110.58558"
       y="39.068974"
       inkscape:export-filename="rect231-2.svg"
       inkscape:export-xdpi="96"
       inkscape:export-ydpi="96" />
    <rect
       style="fill:#ce00db;fill-opacity:0;stroke:#000000;stroke-width:0.948;stroke-dasharray:none;stroke-dashoffset:0;stroke-opacity:1;opacity:1"
       id="rect78"
       width="24.38376"
       height="17.032082"
       x="60.123257"
       y="55.343685" />
    <path
       id="text8"
       style="font-size:28.2222px;line-height:0;-inkscape-font-specification:sans-serif;letter-spacing:0.224896px;white-space:pre;inline-size:20.4323;opacity:1;fill:#ce00db;fill-opacity:1;stroke:url(#linearGradient28);stroke-width:1.2004;stroke-dasharray:none"
       d="m 66.081666,50.139502 c -0.0557,0.03663 -0.11101,0.07334 -0.16635,0.109958 -0.0175,0.01246 -0.035,0.02504 -0.0525,0.03754 0.0885,0.06896 0.17625,0.138624 0.26312,0.209187 0.27414,0.227221 0.52563,0.472981 0.7723,0.721425 0.23045,0.245584 0.45935,0.492038 0.68755,0.739125 0.16074,0.169791 0.33211,0.331447 0.51423,0.484884 0.0154,0.01394 0.031,0.02769 0.0468,0.0413 h 9.46046 V 50.1395 Z m -0.64769,0.462356 c -0.0856,0.06405 -0.17081,0.128297 -0.25554,0.193095 l -0.82542,8.745603 c 0.0963,0.0543 0.19278,0.107862 0.28969,0.161449 0.0871,-0.111185 0.22014,-0.222019 0.40481,-0.320752 0.394,-0.210638 0.749,-0.469475 1.11069,-0.71767 0.36123,-0.265259 0.71272,-0.539126 1.07273,-0.805636 0.0288,-0.02125 0.057,-0.04083 0.0854,-0.059 l 0.47817,-4.939482 c -0.0312,-0.02592 -0.0616,-0.05248 -0.0917,-0.07938 -0.19789,-0.167677 -0.38584,-0.343911 -0.5604,-0.529404 -0.2241,-0.242662 -0.4495,-0.484335 -0.67553,-0.725716 -0.23374,-0.23545 -0.47102,-0.468308 -0.73054,-0.683878 -0.0996,-0.08099 -0.20036,-0.160446 -0.30235,-0.239224 z m 5.60974,7.622969 c -0.80601,0 -1.54279,0.03882 -2.21062,0.11693 -0.24833,0.02904 -0.47743,0.0568 -0.68755,0.08314 -0.0481,0.05092 -0.10587,0.101916 -0.17394,0.152331 -0.37057,0.274332 -0.73174,0.557543 -1.10499,0.829237 -0.41288,0.283288 -0.8177,0.581775 -1.27957,0.806709 0.1844,0.09833 0.36909,0.196475 0.55345,0.294469 0.13083,0.06792 0.2614,0.13587 0.39215,0.203824 0.37669,-0.05756 0.80961,-0.115128 1.29855,-0.172713 0.82904,-0.09764 1.56645,-0.146431 2.21126,-0.146431 2.1417,0 3.70741,0.370885 4.69766,1.112988 0.99025,0.722565 1.48513,1.767545 1.48513,3.134575 0,1.54279 -0.56417,2.68535 -1.6926,3.42744 -1.10539,0.72257 -2.56781,1.08347 -4.3871,1.08347 -1.08235,0 -2.22183,-0.11697 -3.41935,-0.35132 -1.17448,-0.25387 -2.17665,-0.59538 -3.00569,-1.02501 v 2.43085 c 0.75996,0.37104 1.69283,0.65433 2.79823,0.84962 1.12842,0.19528 2.32606,0.29286 3.59266,0.29286 2.90165,0 5.15837,-0.61482 6.77039,-1.84513 1.63507,-1.24984 2.45288,-2.95895 2.45288,-5.12668 0,-1.95289 -0.74852,-3.466335 -2.24541,-4.54042 -1.49688,-1.074086 -3.51236,-1.610737 -6.04554,-1.610737 z" />
    <path
       style="opacity:1;fill:none;fill-rule:evenodd;stroke:#000000;stroke-width:0.264583px;stroke-linecap:butt;stroke-linejoin:miter;stroke-opacity:1"
       d="m 60.409316,56.6707 23.81163,-0.130117"
       id="path79"
       inkscape:connector-type="polyline"
       inkscape:connector-curvature="0" />
    <path
       sodipodi:type="spiral"
       style="fill:none;fill-rule:evenodd;stroke:#000000;stroke-width:0.264583;opacity:1"
       id="path82"
       sodipodi:cx="120.09906"
       sodipodi:cy="114.04857"
       sodipodi:expansion="1"
       sodipodi:revolution="2.8440001"
       sodipodi:radius="1.392325"
       sodipodi:argument="-17.216534"
       sodipodi:t0="0"
       d="m 120.09906,114.04857 c -0.005,0.0735 -0.10133,0.0301 -0.12215,-0.008 -0.0564,-0.10216 0.0408,-0.21247 0.13737,-0.2367 0.17265,-0.0433 0.32705,0.10358 0.35124,0.26714 0.0355,0.24004 -0.16668,0.44371 -0.3969,0.46579 -0.30686,0.0294 -0.56119,-0.22986 -0.58033,-0.52668 -0.0241,-0.37351 0.29305,-0.67906 0.65644,-0.69487 0.44011,-0.0191 0.79717,0.35625 0.80941,0.78621 0.0144,0.50668 -0.41945,0.91542 -0.91597,0.92396 -0.57324,0.01 -1.03378,-0.48267 -1.0385,-1.04574 -0.005,-0.6398 0.54587,-1.1522 1.1755,-1.15305 0.70634,-9.5e-4 1.27066,0.60909 1.26759,1.30527 -0.001,0.27076 -0.0856,0.53825 -0.2377,0.76205"
       transform="translate(-40.725014,-38.413144)" />
    <path
       sodipodi:type="spiral"
       style="fill:none;fill-rule:evenodd;stroke:#000000;stroke-width:0.264583;opacity:1"
       id="path83"
       sodipodi:cx="105.33065"
       sodipodi:cy="114.04857"
       sodipodi:expansion="1"
       sodipodi:revolution="2.8440001"
       sodipodi:radius="1.3724228"
       sodipodi:argument="-17.320829"
       sodipodi:t0="0"
       d="m 105.33065,114.04857 c 0.003,0.0725 -0.0963,0.0399 -0.12053,0.005 -0.0658,-0.0944 0.0182,-0.21248 0.11038,-0.24614 0.16481,-0.0602 0.33125,0.068 0.37176,0.22585 0.0594,0.23167 -0.11788,0.45209 -0.34131,0.49736 -0.29781,0.0603 -0.57375,-0.16775 -0.62298,-0.45677 -0.0619,-0.36371 0.21761,-0.69579 0.57224,-0.74858 0.4295,-0.0639 0.81806,0.26744 0.87419,0.68769 0.0661,0.49525 -0.31728,0.94048 -0.80316,0.9998 -0.56097,0.0685 -1.06299,-0.36709 -1.12541,-0.91862 -0.0709,-0.62667 0.41692,-1.18557 1.03408,-1.25101 0.69237,-0.0734 1.3082,0.46672 1.37663,1.14954 0.0266,0.26556 -0.0287,0.53646 -0.15483,0.77146"
       transform="translate(-40.725014,-38.413144)" />
    <path
       style="opacity:1;fill:#ff6200;fill-opacity:1;fill-rule:evenodd;stroke:#000000;stroke-width:0.264583px;stroke-linecap:butt;stroke-linejoin:miter;stroke-opacity:1"
       d="m 58.425023,74.529416 3.578253,2.47225"
       id="path85"
       inkscape:connector-type="polyline"
       inkscape:connector-curvature="0" />
    <path
       style="opacity:1;fill:none;fill-rule:evenodd;stroke:#000000;stroke-width:0.264583px;stroke-linecap:butt;stroke-linejoin:miter;stroke-opacity:1"
       d="m 59.335856,77.847436 2.99271,0.45541"
       id="path86"
       inkscape:connector-type="polyline"
       inkscape:connector-curvature="0" />
    <path
       style="opacity:1;fill:none;fill-rule:evenodd;stroke:#000000;stroke-width:0.264583px;stroke-linecap:butt;stroke-linejoin:miter;stroke-opacity:1"
       d="m 74.624736,74.854716 2.14695,2.27707"
       id="path87"
       inkscape:connector-type="polyline"
       inkscape:connector-curvature="0" />
    <path
       style="fill:#ce00db;fill-opacity:0;stroke:#000000;stroke-width:1.065;stroke-dasharray:none;stroke-dashoffset:0;stroke-opacity:1;opacity:1"
       id="path80"
       sodipodi:type="arc"
       sodipodi:cx="64.833344"
       sodipodi:cy="75.733009"
       sodipodi:rx="2.2445383"
       sodipodi:ry="2.2445383"
       sodipodi:start="5.8354861"
       sodipodi:end="5.4905534"
       sodipodi:arc-type="arc"
       d="m 66.856672,74.761365 a 2.2445383,2.2445383 0 0 1 -0.881033,2.903771 2.2445383,2.2445383 0 0 1 -2.968861,-0.627669 2.2445383,2.2445383 0 0 1 0.369639,-3.011888 2.2445383,2.2445383 0 0 1 3.032532,0.108863"
       sodipodi:open="true" />
    <path
       style="fill:#ce00db;fill-opacity:0;stroke:#000000;stroke-width:1.065;stroke-dasharray:none;stroke-dashoffset:0;stroke-opacity:1;opacity:1"
       id="path80-8"
       sodipodi:type="arc"
       sodipodi:cx="79.645828"
       sodipodi:cy="75.707741"
       sodipodi:rx="2.2445383"
       sodipodi:ry="2.2445383"
       sodipodi:start="5.8354861"
       sodipodi:end="5.4905534"
       sodipodi:arc-type="arc"
       d="m 81.669157,74.736097 a 2.2445383,2.2445383 0 0 1 -0.881033,2.90377 2.2445383,2.2445383 0 0 1 -2.968861,-0.627668 2.2445383,2.2445383 0 0 1 0.369639,-3.011888 2.2445383,2.2445383 0 0 1 3.032532,0.108862"
       sodipodi:open="true" />
    <path
       style="opacity:1;fill:none;fill-rule:evenodd;stroke:#000000;stroke-width:0.264583px;stroke-linecap:butt;stroke-linejoin:miter;stroke-opacity:1"
       d="m 73.193436,77.066726 4.03366,1.36624"
       id="path88"
       inkscape:connector-type="polyline"
       inkscape:connector-curvature="0" />
    <path
       id="text206-5"
       style="font-size:11.2889px;line-height:0;font-family:sans-serif;-inkscape-font-specification:sans-serif;text-align:start;letter-spacing:0.224896px;writing-mode:vertical-lr;direction:ltr;text-anchor:start;white-space:pre;inline-size:9.98236;fill:#000000;fill-opacity:0;stroke:#000000;stroke-width:1.09366;stroke-dasharray:none;stroke-dashoffset:0;stroke-opacity:1"
       d="m 157.56349,46.325144 c -0.75662,0 -1.37815,0.127421 -1.86397,0.382405 -0.4938,0.262484 -0.86023,0.614827 -1.09916,1.0573 -0.23893,0.449973 -0.35811,0.952436 -0.35811,1.507402 v 5.197615 h 1.06298 v -5.197615 c 0,-0.607464 0.17511,-1.106057 0.52555,-1.496033 0.34246,-0.382477 0.90022,-0.573609 1.67276,-0.573609 0.74865,0 1.31033,0.180041 1.68465,0.540019 0.36636,0.359978 0.54932,0.86631 0.54932,1.518771 v 5.208467 h 1.07539 v -5.174878 c 0,-0.892446 -0.27521,-1.612608 -0.82475,-2.160074 -0.55751,-0.539968 -1.3654,-0.80977 -2.42466,-0.80977 z" />
    <text
       xml:space="preserve"
       transform="matrix(0.26458333,0,0,0.26458333,59.728426,-28.735532)"
       id="text218-3"
       style="font-size:53.3333px;line-height:0;font-family:sans-serif;-inkscape-font-specification:sans-serif;text-align:start;letter-spacing:0.85px;writing-mode:lr-tb;direction:ltr;white-space:pre;shape-inside:url(#rect218-8);fill:#8236b8;fill-opacity:0.458647;stroke:#000000;stroke-width:1.75748;stroke-dasharray:none;stroke-dashoffset:0;stroke-opacity:1"><tspan
         x="217.86133"
         y="368.78708"
         id="tspan2934"><tspan
           style="font-style:italic;font-weight:bold;font-family:Arial;-inkscape-font-specification:'Arial Bold Italic'"
           id="tspan2932">Shopi</tspan></tspan></text>
    <path
       style="fill:#8234ba;fill-opacity:0.458647;stroke:#532451;stroke-width:0.796736;stroke-dasharray:none;stroke-dashoffset:0;stroke-opacity:1;paint-order:normal"
       d="m 118.8453,70.709853 27.35891,2.41242"
       id="path223-3"
       sodipodi:nodetypes="cc" />
    <rect
       style="fill:#ce00db;fill-opacity:0;stroke:#000000;stroke-width:0.948;stroke-dasharray:none;stroke-dashoffset:0;stroke-opacity:1"
       id="rect78-7"
       width="24.38376"
       height="17.032082"
       x="159.66586"
       y="54.741962" />
    <path
       id="text8-4"
       style="font-size:28.2222px;line-height:0;-inkscape-font-specification:sans-serif;letter-spacing:0.224896px;white-space:pre;inline-size:20.4323;fill:#ce00db;fill-opacity:1;stroke:url(#linearGradient232);stroke-width:1.2004;stroke-dasharray:none"
       d="m 165.62428,49.537779 c -0.0557,0.03663 -0.11101,0.07334 -0.16635,0.109958 -0.0175,0.01246 -0.035,0.02504 -0.0525,0.03754 0.0885,0.06896 0.17625,0.138624 0.26312,0.209187 0.27414,0.227221 0.52563,0.472981 0.7723,0.721425 0.23045,0.245584 0.45935,0.492038 0.68755,0.739125 0.16074,0.169791 0.33211,0.331447 0.51423,0.484884 0.0154,0.01394 0.031,0.02769 0.0468,0.0413 h 9.46046 v -2.343421 z m -0.64769,0.462356 c -0.0856,0.06405 -0.17081,0.128297 -0.25554,0.193095 l -0.82542,8.745603 c 0.0963,0.0543 0.19278,0.107862 0.28969,0.161449 0.0871,-0.111185 0.22014,-0.222019 0.40481,-0.320752 0.394,-0.210638 0.749,-0.469475 1.11069,-0.71767 0.36123,-0.265259 0.71272,-0.539126 1.07273,-0.805636 0.0288,-0.02125 0.057,-0.04083 0.0854,-0.059 l 0.47817,-4.939482 c -0.0312,-0.02592 -0.0616,-0.05248 -0.0917,-0.07938 -0.19789,-0.167677 -0.38584,-0.343911 -0.5604,-0.529404 -0.2241,-0.242662 -0.4495,-0.484335 -0.67553,-0.725716 -0.23374,-0.23545 -0.47102,-0.468308 -0.73054,-0.683878 -0.0996,-0.08099 -0.20036,-0.160446 -0.30235,-0.239224 z m 5.60974,7.622969 c -0.80601,0 -1.54279,0.03882 -2.21062,0.11693 -0.24833,0.02904 -0.47743,0.0568 -0.68755,0.08314 -0.0481,0.05092 -0.10587,0.101916 -0.17394,0.152331 -0.37057,0.274332 -0.73174,0.557543 -1.10499,0.829237 -0.41288,0.283288 -0.8177,0.581775 -1.27957,0.806709 0.1844,0.09833 0.36909,0.196475 0.55345,0.294469 0.13083,0.06792 0.2614,0.13587 0.39215,0.203824 0.37669,-0.05756 0.80961,-0.115128 1.29855,-0.172713 0.82904,-0.09764 1.56645,-0.146431 2.21126,-0.146431 2.1417,0 3.70741,0.370885 4.69766,1.112988 0.99025,0.722565 1.48513,1.767545 1.48513,3.134575 0,1.54279 -0.56417,2.68535 -1.6926,3.42744 -1.10539,0.72257 -2.56781,1.08347 -4.3871,1.08347 -1.08235,0 -2.22183,-0.11697 -3.41935,-0.35132 -1.17448,-0.25387 -2.17665,-0.59538 -3.00569,-1.02501 v 2.43085 c 0.75996,0.37104 1.69283,0.65433 2.79823,0.84962 1.12842,0.19528 2.32606,0.29286 3.59266,0.29286 2.90165,0 5.15837,-0.61482 6.77039,-1.84513 1.63507,-1.24984 2.45288,-2.95895 2.45288,-5.12668 0,-1.95289 -0.74852,-3.466335 -2.24541,-4.54042 -1.49688,-1.074086 -3.51236,-1.610737 -6.04554,-1.610737 z" />
    <path
       style="fill:none;fill-rule:evenodd;stroke:#000000;stroke-width:0.264583px;stroke-linecap:butt;stroke-linejoin:miter;stroke-opacity:1"
       d="M 159.95193,56.068977 183.76356,55.93886"
       id="path79-3"
       inkscape:connector-type="polyline"
       inkscape:connector-curvature="0" />
    <path
       sodipodi:type="spiral"
       style="fill:none;fill-rule:evenodd;stroke:#000000;stroke-width:0.264583"
       id="path82-8"
       sodipodi:cx="120.09906"
       sodipodi:cy="114.04857"
       sodipodi:expansion="1"
       sodipodi:revolution="2.8440001"
       sodipodi:radius="1.392325"
       sodipodi:argument="-17.216534"
       sodipodi:t0="0"
       d="m 120.09906,114.04857 c -0.005,0.0735 -0.10133,0.0301 -0.12215,-0.008 -0.0564,-0.10216 0.0408,-0.21247 0.13737,-0.2367 0.17265,-0.0433 0.32705,0.10358 0.35124,0.26714 0.0355,0.24004 -0.16668,0.44371 -0.3969,0.46579 -0.30686,0.0294 -0.56119,-0.22986 -0.58033,-0.52668 -0.0241,-0.37351 0.29305,-0.67906 0.65644,-0.69487 0.44011,-0.0191 0.79717,0.35625 0.80941,0.78621 0.0144,0.50668 -0.41945,0.91542 -0.91597,0.92396 -0.57324,0.01 -1.03378,-0.48267 -1.0385,-1.04574 -0.005,-0.6398 0.54587,-1.1522 1.1755,-1.15305 0.70634,-9.5e-4 1.27066,0.60909 1.26759,1.30527 -0.001,0.27076 -0.0856,0.53825 -0.2377,0.76205"
       transform="translate(58.817599,-39.014867)" />
    <path
       sodipodi:type="spiral"
       style="fill:none;fill-rule:evenodd;stroke:#000000;stroke-width:0.264583"
       id="path83-0"
       sodipodi:cx="105.33065"
       sodipodi:cy="114.04857"
       sodipodi:expansion="1"
       sodipodi:revolution="2.8440001"
       sodipodi:radius="1.3724228"
       sodipodi:argument="-17.320829"
       sodipodi:t0="0"
       d="m 105.33065,114.04857 c 0.003,0.0725 -0.0963,0.0399 -0.12053,0.005 -0.0658,-0.0944 0.0182,-0.21248 0.11038,-0.24614 0.16481,-0.0602 0.33125,0.068 0.37176,0.22585 0.0594,0.23167 -0.11788,0.45209 -0.34131,0.49736 -0.29781,0.0603 -0.57375,-0.16775 -0.62298,-0.45677 -0.0619,-0.36371 0.21761,-0.69579 0.57224,-0.74858 0.4295,-0.0639 0.81806,0.26744 0.87419,0.68769 0.0661,0.49525 -0.31728,0.94048 -0.80316,0.9998 -0.56097,0.0685 -1.06299,-0.36709 -1.12541,-0.91862 -0.0709,-0.62667 0.41692,-1.18557 1.03408,-1.25101 0.69237,-0.0734 1.3082,0.46672 1.37663,1.14954 0.0266,0.26556 -0.0287,0.53646 -0.15483,0.77146"
       transform="translate(58.817599,-39.014867)" />
    <path
       style="fill:#ff6200;fill-opacity:1;fill-rule:evenodd;stroke:#000000;stroke-width:0.264583px;stroke-linecap:butt;stroke-linejoin:miter;stroke-opacity:1"
       d="m 157.96764,73.927693 3.57825,2.47225"
       id="path85-8"
       inkscape:connector-type="polyline"
       inkscape:connector-curvature="0" />
    <path
       style="fill:none;fill-rule:evenodd;stroke:#000000;stroke-width:0.264583px;stroke-linecap:butt;stroke-linejoin:miter;stroke-opacity:1"
       d="m 158.87847,77.245713 2.99271,0.45541"
       id="path86-8"
       inkscape:connector-type="polyline"
       inkscape:connector-curvature="0" />
    <path
       style="fill:none;fill-rule:evenodd;stroke:#000000;stroke-width:0.264583px;stroke-linecap:butt;stroke-linejoin:miter;stroke-opacity:1"
       d="m 174.16735,74.252993 2.14695,2.27707"
       id="path87-0"
       inkscape:connector-type="polyline"
       inkscape:connector-curvature="0" />
    <path
       style="fill:#ce00db;fill-opacity:0;stroke:#000000;stroke-width:1.065;stroke-dasharray:none;stroke-dashoffset:0;stroke-opacity:1"
       id="path80-6"
       sodipodi:type="arc"
       sodipodi:cx="164.37596"
       sodipodi:cy="75.131287"
       sodipodi:rx="2.2445383"
       sodipodi:ry="2.2445383"
       sodipodi:start="5.8354861"
       sodipodi:end="5.4905534"
       sodipodi:arc-type="arc"
       d="m 166.39929,74.159643 a 2.2445383,2.2445383 0 0 1 -0.88103,2.90377 2.2445383,2.2445383 0 0 1 -2.96886,-0.627668 2.2445383,2.2445383 0 0 1 0.36963,-3.011889 2.2445383,2.2445383 0 0 1 3.03254,0.108863"
       sodipodi:open="true" />
    <path
       style="fill:#ce00db;fill-opacity:0;stroke:#000000;stroke-width:1.065;stroke-dasharray:none;stroke-dashoffset:0;stroke-opacity:1"
       id="path80-8-8"
       sodipodi:type="arc"
       sodipodi:cx="179.18845"
       sodipodi:cy="75.106018"
       sodipodi:rx="2.2445383"
       sodipodi:ry="2.2445383"
       sodipodi:start="5.8354861"
       sodipodi:end="5.4905534"
       sodipodi:arc-type="arc"
       d="m 181.21177,74.134374 a 2.2445383,2.2445383 0 0 1 -0.88103,2.903771 2.2445383,2.2445383 0 0 1 -2.96886,-0.627669 2.2445383,2.2445383 0 0 1 0.36964,-3.011888 2.2445383,2.2445383 0 0 1 3.03253,0.108863"
       sodipodi:open="true" />
    <path
       style="fill:none;fill-rule:evenodd;stroke:#000000;stroke-width:0.264583px;stroke-linecap:butt;stroke-linejoin:miter;stroke-opacity:1"
       d="m 172.73605,76.465003 4.03366,1.36624"
       id="path88-1"
       inkscape:connector-type="polyline"
       inkscape:connector-curvature="0" />
    <path
       id="text206-4"
       style="font-size:11.2889px;line-height:0;font-family:sans-serif;-inkscape-font-specification:sans-serif;text-align:start;letter-spacing:0.224896px;writing-mode:vertical-lr;direction:ltr;text-anchor:start;white-space:pre;inline-size:9.98236;fill:#000000;fill-opacity:0;stroke:#000000;stroke-width:1.09366;stroke-dasharray:none;stroke-dashoffset:0;stroke-opacity:1"
       d="m 60.068654,96.664814 c -0.75661,0 -1.37814,0.127421 -1.86397,0.382405 -0.49379,0.262484 -0.86022,0.614827 -1.09916,1.0573 -0.23893,0.449973 -0.35811,0.952436 -0.35811,1.507402 v 5.197619 h 1.06298 v -5.197619 c 0,-0.607464 0.17511,-1.106057 0.52555,-1.496033 0.34247,-0.382477 0.90022,-0.573609 1.67277,-0.573609 0.74864,0 1.31032,0.180041 1.68464,0.540019 0.36636,0.359978 0.54932,0.86631 0.54932,1.518771 v 5.208471 h 1.07539 v -5.174882 c 0,-0.892446 -0.27521,-1.612608 -0.82475,-2.160074 -0.55751,-0.539968 -1.3654,-0.80977 -2.42466,-0.80977 z"
       inkscape:export-filename="text206-4.svg"
       inkscape:export-xdpi="96"
       inkscape:export-ydpi="96" />
    <text
       xml:space="preserve"
       transform="matrix(0.26458333,0,0,0.26458333,-37.766406,21.604138)"
       id="text218-9"
       style="font-size:53.3333px;line-height:0;font-family:sans-serif;-inkscape-font-specification:sans-serif;text-align:start;letter-spacing:0.85px;writing-mode:lr-tb;direction:ltr;white-space:pre;shape-inside:url(#rect218-7);display:inline;fill:#000000;fill-opacity:1;stroke:#000000;stroke-width:1.75748;stroke-dasharray:none;stroke-dashoffset:0;stroke-opacity:1"><tspan
         x="217.86133"
         y="368.78708"
         id="tspan2938"><tspan
           style="font-style:italic;font-weight:bold;font-family:Arial;-inkscape-font-specification:'Arial Bold Italic'"
           id="tspan2936">Shopi</tspan></tspan></text>
    <path
       style="fill:#8234ba;fill-opacity:0.458647;stroke:#532451;stroke-width:0.796736;stroke-dasharray:none;stroke-dashoffset:0;stroke-opacity:1;paint-order:normal"
       d="m 21.35047,121.04952 27.358904,2.41242"
       id="path223-8"
       sodipodi:nodetypes="cc" />
    <text
       xml:space="preserve"
       transform="matrix(0.26458333,0,0,0.26458333,-18.752877,109.33616)"
       id="text218-9-8"
       style="font-size:53.3333px;line-height:0;font-family:sans-serif;-inkscape-font-specification:sans-serif;text-align:start;letter-spacing:0.85px;writing-mode:lr-tb;direction:ltr;white-space:pre;shape-inside:url(#rect218-7-73);display:inline;fill:#000000;fill-opacity:1;stroke:#000000;stroke-width:1.75748;stroke-dasharray:none;stroke-dashoffset:0;stroke-opacity:1"
       inkscape:export-filename="text218-9-8.svg"
       inkscape:export-xdpi="96"
       inkscape:export-ydpi="96"><tspan
         x="217.86133"
         y="368.78708"
         id="tspan2942"><tspan
           style="font-style:italic;font-weight:bold;font-family:Arial;-inkscape-font-specification:'Arial Bold Italic'"
           id="tspan2940">Shopi</tspan></tspan></text>
    <path
       style="fill:#8234ba;fill-opacity:0.458647;stroke:#532451;stroke-width:0.796736;stroke-dasharray:none;stroke-dashoffset:0;stroke-opacity:1;paint-order:normal"
       d="m 40.363999,208.78155 27.358904,2.41242"
       id="path223-8-2"
       sodipodi:nodetypes="cc" />
    <rect
       style="fill:#ce00db;fill-opacity:0;stroke:#000000;stroke-width:0.948;stroke-dasharray:none;stroke-dashoffset:0;stroke-opacity:1"
       id="rect78-5"
       width="24.38376"
       height="17.032082"
       x="62.171047"
       y="105.08163" />
    <path
       id="text8-5"
       style="font-size:28.2222px;line-height:0;-inkscape-font-specification:sans-serif;letter-spacing:0.224896px;white-space:pre;inline-size:20.4323;fill:#000000;fill-opacity:1;stroke:url(#linearGradient233);stroke-width:1.2004;stroke-dasharray:none"
       d="m 68.129444,99.877449 c -0.0557,0.03663 -0.11101,0.07334 -0.16635,0.109958 -0.0175,0.01246 -0.035,0.02504 -0.0525,0.03754 0.0885,0.069 0.17625,0.13862 0.26312,0.20918 0.27414,0.22723 0.52563,0.47299 0.7723,0.72143 0.23045,0.24558 0.45935,0.49204 0.68755,0.73912 0.16074,0.1698 0.33211,0.33145 0.51423,0.48489 0.0154,0.0139 0.031,0.0277 0.0468,0.0413 h 9.46046 v -2.343423 z m -0.64769,0.462361 c -0.0856,0.064 -0.17081,0.12829 -0.25554,0.19309 l -0.82542,8.7456 c 0.0963,0.0543 0.19278,0.10787 0.28969,0.16145 0.0871,-0.11118 0.22014,-0.22202 0.40481,-0.32075 0.394,-0.21064 0.749,-0.46947 1.11069,-0.71767 0.36123,-0.26526 0.71272,-0.53913 1.07273,-0.80564 0.0288,-0.0212 0.057,-0.0408 0.0854,-0.059 l 0.47817,-4.93948 c -0.0312,-0.0259 -0.0616,-0.0525 -0.0917,-0.0794 -0.19789,-0.16767 -0.38584,-0.34391 -0.5604,-0.5294 -0.2241,-0.24266 -0.4495,-0.48434 -0.67553,-0.72572 -0.23374,-0.23545 -0.47102,-0.46831 -0.73054,-0.68388 -0.0996,-0.081 -0.20036,-0.16044 -0.30235,-0.23922 z m 5.60974,7.62296 c -0.80601,0 -1.54279,0.0388 -2.21062,0.11693 -0.24833,0.029 -0.47743,0.0568 -0.68755,0.0831 -0.0481,0.0509 -0.10587,0.10192 -0.17394,0.15234 -0.37057,0.27433 -0.73174,0.55754 -1.10499,0.82923 -0.41288,0.28329 -0.8177,0.58178 -1.27957,0.80671 0.1844,0.0983 0.36909,0.19648 0.55345,0.29447 0.13083,0.0679 0.2614,0.13587 0.39215,0.20382 0.37669,-0.0576 0.80961,-0.11512 1.29855,-0.17271 0.82904,-0.0976 1.56645,-0.14643 2.21126,-0.14643 2.1417,0 3.70741,0.37089 4.69766,1.11299 0.99025,0.72256 1.48513,1.76754 1.48513,3.13457 0,1.54279 -0.56417,2.68535 -1.6926,3.42744 -1.10539,0.72257 -2.56781,1.08347 -4.3871,1.08347 -1.08235,0 -2.22183,-0.11697 -3.41935,-0.35132 -1.17448,-0.25387 -2.17665,-0.59538 -3.00569,-1.02501 v 2.43085 c 0.75996,0.37104 1.69283,0.65433 2.79823,0.84962 1.12842,0.19528 2.32606,0.29286 3.59266,0.29286 2.90165,0 5.15837,-0.61482 6.77039,-1.84513 1.63507,-1.24984 2.45288,-2.95895 2.45288,-5.12668 0,-1.95289 -0.74852,-3.46633 -2.24541,-4.54042 -1.49688,-1.07408 -3.51236,-1.61073 -6.04554,-1.61073 z" />
    <path
       style="fill:none;fill-rule:evenodd;stroke:#000000;stroke-width:0.264583px;stroke-linecap:butt;stroke-linejoin:miter;stroke-opacity:1"
       d="m 62.457094,106.40865 23.81163,-0.13012"
       id="path79-4"
       inkscape:connector-type="polyline"
       inkscape:connector-curvature="0" />
    <path
       sodipodi:type="spiral"
       style="fill:none;fill-rule:evenodd;stroke:#000000;stroke-width:0.264583"
       id="path82-9"
       sodipodi:cx="120.09906"
       sodipodi:cy="114.04857"
       sodipodi:expansion="1"
       sodipodi:revolution="2.8440001"
       sodipodi:radius="1.392325"
       sodipodi:argument="-17.216534"
       sodipodi:t0="0"
       d="m 120.09906,114.04857 c -0.005,0.0735 -0.10133,0.0301 -0.12215,-0.008 -0.0564,-0.10216 0.0408,-0.21247 0.13737,-0.2367 0.17265,-0.0433 0.32705,0.10358 0.35124,0.26714 0.0355,0.24004 -0.16668,0.44371 -0.3969,0.46579 -0.30686,0.0294 -0.56119,-0.22986 -0.58033,-0.52668 -0.0241,-0.37351 0.29305,-0.67906 0.65644,-0.69487 0.44011,-0.0191 0.79717,0.35625 0.80941,0.78621 0.0144,0.50668 -0.41945,0.91542 -0.91597,0.92396 -0.57324,0.01 -1.03378,-0.48267 -1.0385,-1.04574 -0.005,-0.6398 0.54587,-1.1522 1.1755,-1.15305 0.70634,-9.5e-4 1.27066,0.60909 1.26759,1.30527 -0.001,0.27076 -0.0856,0.53825 -0.2377,0.76205"
       transform="translate(-38.677233,11.324804)" />
    <path
       sodipodi:type="spiral"
       style="fill:none;fill-rule:evenodd;stroke:#000000;stroke-width:0.264583"
       id="path83-1"
       sodipodi:cx="105.33065"
       sodipodi:cy="114.04857"
       sodipodi:expansion="1"
       sodipodi:revolution="2.8440001"
       sodipodi:radius="1.3724228"
       sodipodi:argument="-17.320829"
       sodipodi:t0="0"
       d="m 105.33065,114.04857 c 0.003,0.0725 -0.0963,0.0399 -0.12053,0.005 -0.0658,-0.0944 0.0182,-0.21248 0.11038,-0.24614 0.16481,-0.0602 0.33125,0.068 0.37176,0.22585 0.0594,0.23167 -0.11788,0.45209 -0.34131,0.49736 -0.29781,0.0603 -0.57375,-0.16775 -0.62298,-0.45677 -0.0619,-0.36371 0.21761,-0.69579 0.57224,-0.74858 0.4295,-0.0639 0.81806,0.26744 0.87419,0.68769 0.0661,0.49525 -0.31728,0.94048 -0.80316,0.9998 -0.56097,0.0685 -1.06299,-0.36709 -1.12541,-0.91862 -0.0709,-0.62667 0.41692,-1.18557 1.03408,-1.25101 0.69237,-0.0734 1.3082,0.46672 1.37663,1.14954 0.0266,0.26556 -0.0287,0.53646 -0.15483,0.77146"
       transform="translate(-38.677233,11.324804)" />
    <path
       style="fill:#ff6200;fill-opacity:1;fill-rule:evenodd;stroke:#000000;stroke-width:0.264583px;stroke-linecap:butt;stroke-linejoin:miter;stroke-opacity:1"
       d="m 60.472804,124.26736 3.57825,2.47225"
       id="path85-2"
       inkscape:connector-type="polyline"
       inkscape:connector-curvature="0" />
    <path
       style="fill:none;fill-rule:evenodd;stroke:#000000;stroke-width:0.264583px;stroke-linecap:butt;stroke-linejoin:miter;stroke-opacity:1"
       d="m 61.383634,127.58538 2.99271,0.45541"
       id="path86-5"
       inkscape:connector-type="polyline"
       inkscape:connector-curvature="0" />
    <path
       style="fill:none;fill-rule:evenodd;stroke:#000000;stroke-width:0.264583px;stroke-linecap:butt;stroke-linejoin:miter;stroke-opacity:1"
       d="m 76.672514,124.59266 2.14695,2.27707"
       id="path87-08"
       inkscape:connector-type="polyline"
       inkscape:connector-curvature="0" />
    <path
       style="fill:#ce00db;fill-opacity:0;stroke:#000000;stroke-width:1.065;stroke-dasharray:none;stroke-dashoffset:0;stroke-opacity:1"
       id="path80-3"
       sodipodi:type="arc"
       sodipodi:cx="66.881134"
       sodipodi:cy="125.47095"
       sodipodi:rx="2.2445383"
       sodipodi:ry="2.2445383"
       sodipodi:start="5.8354861"
       sodipodi:end="5.4905534"
       sodipodi:arc-type="arc"
       d="m 68.904463,124.4993 a 2.2445383,2.2445383 0 0 1 -0.881033,2.90377 2.2445383,2.2445383 0 0 1 -2.968861,-0.62766 2.2445383,2.2445383 0 0 1 0.369639,-3.01189 2.2445383,2.2445383 0 0 1 3.032532,0.10886"
       sodipodi:open="true" />
    <path
       style="fill:#ce00db;fill-opacity:0;stroke:#000000;stroke-width:1.065;stroke-dasharray:none;stroke-dashoffset:0;stroke-opacity:1"
       id="path80-8-9"
       sodipodi:type="arc"
       sodipodi:cx="81.693604"
       sodipodi:cy="125.44569"
       sodipodi:rx="2.2445383"
       sodipodi:ry="2.2445383"
       sodipodi:start="5.8354861"
       sodipodi:end="5.4905534"
       sodipodi:arc-type="arc"
       d="m 83.716932,124.47404 a 2.2445383,2.2445383 0 0 1 -0.881033,2.90377 2.2445383,2.2445383 0 0 1 -2.968861,-0.62767 2.2445383,2.2445383 0 0 1 0.369639,-3.01188 2.2445383,2.2445383 0 0 1 3.032532,0.10886"
       sodipodi:open="true" />
    <path
       style="fill:none;fill-rule:evenodd;stroke:#000000;stroke-width:0.264583px;stroke-linecap:butt;stroke-linejoin:miter;stroke-opacity:1"
       d="m 75.241214,126.80467 4.03366,1.36624"
       id="path88-3"
       inkscape:connector-type="polyline"
       inkscape:connector-curvature="0" />
    <path
       id="text206-4-1"
       style="font-size:11.2889px;line-height:0;font-family:sans-serif;-inkscape-font-specification:sans-serif;text-align:start;letter-spacing:0.224896px;writing-mode:vertical-lr;direction:ltr;text-anchor:start;white-space:pre;inline-size:9.98236;fill:#000000;fill-opacity:0;stroke:#000000;stroke-width:1.09366;stroke-dasharray:none;stroke-dashoffset:0;stroke-opacity:1"
       d="m 137.30924,145.7231 c -0.75661,0 -1.37814,0.12742 -1.86397,0.3824 -0.49379,0.26249 -0.86022,0.61483 -1.09916,1.0573 -0.23893,0.44998 -0.35811,0.95244 -0.35811,1.50741 v 5.19761 h 1.06298 v -5.19761 c 0,-0.60747 0.17511,-1.10606 0.52555,-1.49604 0.34247,-0.38248 0.90022,-0.57361 1.67277,-0.57361 0.74864,0 1.31032,0.18004 1.68464,0.54002 0.36636,0.35998 0.54932,0.86631 0.54932,1.51877 v 5.20847 h 1.07539 v -5.17488 c 0,-0.89244 -0.27521,-1.61261 -0.82475,-2.16007 -0.55751,-0.53997 -1.3654,-0.80977 -2.42466,-0.80977 z"
       inkscape:export-filename="text206-4-1.svg"
       inkscape:export-xdpi="96"
       inkscape:export-ydpi="96" />
    <rect
       style="fill:#ce00db;fill-opacity:0;stroke:#000000;stroke-width:0.948;stroke-dasharray:none;stroke-dashoffset:0;stroke-opacity:1"
       id="rect78-5-2"
       width="24.38376"
       height="17.032082"
       x="139.41164"
       y="154.13992" />
    <path
       id="text8-5-5"
       style="font-size:28.2222px;line-height:0;-inkscape-font-specification:sans-serif;letter-spacing:0.224896px;white-space:pre;inline-size:20.4323;fill:#000000;fill-opacity:1;stroke:url(#linearGradient238);stroke-width:1.2004;stroke-dasharray:none"
       d="m 145.37003,148.93573 c -0.0557,0.0366 -0.11101,0.0733 -0.16635,0.10996 -0.0175,0.0125 -0.035,0.025 -0.0525,0.0375 0.0885,0.069 0.17625,0.13862 0.26312,0.20919 0.27414,0.22722 0.52563,0.47298 0.7723,0.72142 0.23045,0.24559 0.45935,0.49204 0.68755,0.73913 0.16074,0.16979 0.33211,0.33145 0.51423,0.48488 0.0154,0.0139 0.031,0.0277 0.0468,0.0413 h 9.46046 v -2.34342 z m -0.64769,0.46236 c -0.0856,0.0641 -0.17081,0.1283 -0.25554,0.19309 l -0.82542,8.74561 c 0.0963,0.0543 0.19278,0.10786 0.28969,0.16145 0.0871,-0.11119 0.22014,-0.22202 0.40481,-0.32076 0.394,-0.21063 0.749,-0.46947 1.11069,-0.71767 0.36123,-0.26525 0.71272,-0.53912 1.07273,-0.80563 0.0288,-0.0213 0.057,-0.0408 0.0854,-0.059 l 0.47817,-4.93948 c -0.0312,-0.0259 -0.0616,-0.0525 -0.0917,-0.0794 -0.19789,-0.16768 -0.38584,-0.34392 -0.5604,-0.52941 -0.2241,-0.24266 -0.4495,-0.48433 -0.67553,-0.72571 -0.23374,-0.23545 -0.47102,-0.46831 -0.73054,-0.68388 -0.0996,-0.081 -0.20036,-0.16045 -0.30235,-0.23923 z m 5.60974,7.62297 c -0.80601,0 -1.54279,0.0388 -2.21062,0.11693 -0.24833,0.029 -0.47743,0.0568 -0.68755,0.0831 -0.0481,0.0509 -0.10587,0.10191 -0.17394,0.15233 -0.37057,0.27433 -0.73174,0.55754 -1.10499,0.82924 -0.41288,0.28328 -0.8177,0.58177 -1.27957,0.8067 0.1844,0.0983 0.36909,0.19648 0.55345,0.29447 0.13083,0.0679 0.2614,0.13587 0.39215,0.20383 0.37669,-0.0576 0.80961,-0.11513 1.29855,-0.17272 0.82904,-0.0976 1.56645,-0.14643 2.21126,-0.14643 2.1417,0 3.70741,0.37089 4.69766,1.11299 0.99025,0.72256 1.48513,1.76754 1.48513,3.13457 0,1.54279 -0.56417,2.68535 -1.6926,3.42744 -1.10539,0.72257 -2.56781,1.08347 -4.3871,1.08347 -1.08235,0 -2.22183,-0.11697 -3.41935,-0.35132 -1.17448,-0.25387 -2.17665,-0.59538 -3.00569,-1.02501 v 2.43085 c 0.75996,0.37104 1.69283,0.65433 2.79823,0.84962 1.12842,0.19528 2.32606,0.29286 3.59266,0.29286 2.90165,0 5.15837,-0.61482 6.77039,-1.84513 1.63507,-1.24984 2.45288,-2.95895 2.45288,-5.12668 0,-1.95289 -0.74852,-3.46633 -2.24541,-4.54041 -1.49688,-1.07409 -3.51236,-1.61074 -6.04554,-1.61074 z" />
    <path
       style="fill:none;fill-rule:evenodd;stroke:#000000;stroke-width:0.264583px;stroke-linecap:butt;stroke-linejoin:miter;stroke-opacity:1"
       d="m 139.69768,155.46693 23.81163,-0.13012"
       id="path79-4-7"
       inkscape:connector-type="polyline"
       inkscape:connector-curvature="0" />
    <path
       sodipodi:type="spiral"
       style="fill:none;fill-rule:evenodd;stroke:#000000;stroke-width:0.264583"
       id="path82-9-4"
       sodipodi:cx="120.09906"
       sodipodi:cy="114.04857"
       sodipodi:expansion="1"
       sodipodi:revolution="2.8440001"
       sodipodi:radius="1.392325"
       sodipodi:argument="-17.216534"
       sodipodi:t0="0"
       d="m 120.09906,114.04857 c -0.005,0.0735 -0.10133,0.0301 -0.12215,-0.008 -0.0564,-0.10216 0.0408,-0.21247 0.13737,-0.2367 0.17265,-0.0433 0.32705,0.10358 0.35124,0.26714 0.0355,0.24004 -0.16668,0.44371 -0.3969,0.46579 -0.30686,0.0294 -0.56119,-0.22986 -0.58033,-0.52668 -0.0241,-0.37351 0.29305,-0.67906 0.65644,-0.69487 0.44011,-0.0191 0.79717,0.35625 0.80941,0.78621 0.0144,0.50668 -0.41945,0.91542 -0.91597,0.92396 -0.57324,0.01 -1.03378,-0.48267 -1.0385,-1.04574 -0.005,-0.6398 0.54587,-1.1522 1.1755,-1.15305 0.70634,-9.5e-4 1.27066,0.60909 1.26759,1.30527 -0.001,0.27076 -0.0856,0.53825 -0.2377,0.76205"
       transform="translate(38.563357,60.38309)" />
    <path
       sodipodi:type="spiral"
       style="fill:none;fill-rule:evenodd;stroke:#000000;stroke-width:0.264583"
       id="path83-1-44"
       sodipodi:cx="105.33065"
       sodipodi:cy="114.04857"
       sodipodi:expansion="1"
       sodipodi:revolution="2.8440001"
       sodipodi:radius="1.3724228"
       sodipodi:argument="-17.320829"
       sodipodi:t0="0"
       d="m 105.33065,114.04857 c 0.003,0.0725 -0.0963,0.0399 -0.12053,0.005 -0.0658,-0.0944 0.0182,-0.21248 0.11038,-0.24614 0.16481,-0.0602 0.33125,0.068 0.37176,0.22585 0.0594,0.23167 -0.11788,0.45209 -0.34131,0.49736 -0.29781,0.0603 -0.57375,-0.16775 -0.62298,-0.45677 -0.0619,-0.36371 0.21761,-0.69579 0.57224,-0.74858 0.4295,-0.0639 0.81806,0.26744 0.87419,0.68769 0.0661,0.49525 -0.31728,0.94048 -0.80316,0.9998 -0.56097,0.0685 -1.06299,-0.36709 -1.12541,-0.91862 -0.0709,-0.62667 0.41692,-1.18557 1.03408,-1.25101 0.69237,-0.0734 1.3082,0.46672 1.37663,1.14954 0.0266,0.26556 -0.0287,0.53646 -0.15483,0.77146"
       transform="translate(38.563357,60.38309)" />
    <path
       style="fill:#ff6200;fill-opacity:1;fill-rule:evenodd;stroke:#000000;stroke-width:0.264583px;stroke-linecap:butt;stroke-linejoin:miter;stroke-opacity:1"
       d="m 137.71339,173.32564 3.57825,2.47225"
       id="path85-2-44"
       inkscape:connector-type="polyline"
       inkscape:connector-curvature="0" />
    <path
       style="fill:none;fill-rule:evenodd;stroke:#000000;stroke-width:0.264583px;stroke-linecap:butt;stroke-linejoin:miter;stroke-opacity:1"
       d="m 138.62422,176.64366 2.99271,0.45541"
       id="path86-5-2"
       inkscape:connector-type="polyline"
       inkscape:connector-curvature="0" />
    <path
       style="fill:none;fill-rule:evenodd;stroke:#000000;stroke-width:0.264583px;stroke-linecap:butt;stroke-linejoin:miter;stroke-opacity:1"
       d="m 153.9131,173.65094 2.14695,2.27707"
       id="path87-08-9"
       inkscape:connector-type="polyline"
       inkscape:connector-curvature="0" />
    <path
       style="fill:#ce00db;fill-opacity:0;stroke:#000000;stroke-width:1.065;stroke-dasharray:none;stroke-dashoffset:0;stroke-opacity:1"
       id="path80-3-3"
       sodipodi:type="arc"
       sodipodi:cx="144.12172"
       sodipodi:cy="174.52924"
       sodipodi:rx="2.2445383"
       sodipodi:ry="2.2445383"
       sodipodi:start="5.8354861"
       sodipodi:end="5.4905534"
       sodipodi:arc-type="arc"
       d="m 146.14505,173.55759 a 2.2445383,2.2445383 0 0 1 -0.88104,2.90377 2.2445383,2.2445383 0 0 1 -2.96886,-0.62767 2.2445383,2.2445383 0 0 1 0.36964,-3.01188 2.2445383,2.2445383 0 0 1 3.03254,0.10886"
       sodipodi:open="true" />
    <path
       style="fill:#ce00db;fill-opacity:0;stroke:#000000;stroke-width:1.065;stroke-dasharray:none;stroke-dashoffset:0;stroke-opacity:1"
       id="path80-8-9-0"
       sodipodi:type="arc"
       sodipodi:cx="158.9342"
       sodipodi:cy="174.50397"
       sodipodi:rx="2.2445383"
       sodipodi:ry="2.2445383"
       sodipodi:start="5.8354861"
       sodipodi:end="5.4905534"
       sodipodi:arc-type="arc"
       d="m 160.95753,173.53232 a 2.2445383,2.2445383 0 0 1 -0.88103,2.90377 2.2445383,2.2445383 0 0 1 -2.96886,-0.62766 2.2445383,2.2445383 0 0 1 0.36964,-3.01189 2.2445383,2.2445383 0 0 1 3.03253,0.10886"
       sodipodi:open="true" />
    <path
       style="fill:none;fill-rule:evenodd;stroke:#000000;stroke-width:0.264583px;stroke-linecap:butt;stroke-linejoin:miter;stroke-opacity:1"
       d="m 152.4818,175.86295 4.03366,1.36624"
       id="path88-3-7"
       inkscape:connector-type="polyline"
       inkscape:connector-curvature="0" />
    <path
       id="text206-4-9"
       style="font-size:11.2889px;line-height:0;font-family:sans-serif;-inkscape-font-specification:sans-serif;text-align:start;letter-spacing:0.224896px;writing-mode:vertical-lr;direction:ltr;text-anchor:start;white-space:pre;inline-size:9.98236;fill:#000000;fill-opacity:0;stroke:#000000;stroke-width:1.09366;stroke-dasharray:none;stroke-dashoffset:0;stroke-opacity:1"
       d="m 157.60388,94.137928 c -0.75661,0 -1.37814,0.127421 -1.86397,0.382405 -0.49379,0.262484 -0.86022,0.614827 -1.09916,1.0573 -0.23893,0.449973 -0.35811,0.952436 -0.35811,1.507402 v 5.197615 h 1.06298 v -5.197615 c 0,-0.607464 0.17511,-1.106057 0.52555,-1.496033 0.34247,-0.382477 0.90022,-0.573609 1.67277,-0.573609 0.74864,0 1.31032,0.180041 1.68464,0.540019 0.36636,0.359978 0.54932,0.86631 0.54932,1.518771 v 5.208467 h 1.07539 v -5.174878 c 0,-0.892446 -0.27521,-1.612608 -0.82475,-2.160074 -0.55751,-0.539968 -1.3654,-0.80977 -2.42466,-0.80977 z"
       inkscape:export-filename="text206-4-9.svg"
       inkscape:export-xdpi="96"
       inkscape:export-ydpi="96" />
    <text
       xml:space="preserve"
       transform="matrix(0.26458333,0,0,0.26458333,59.768812,19.077252)"
       id="text218-9-3"
       style="font-size:53.3333px;line-height:0;font-family:sans-serif;-inkscape-font-specification:sans-serif;text-align:start;letter-spacing:0.85px;writing-mode:lr-tb;direction:ltr;white-space:pre;shape-inside:url(#rect218-7-7);display:inline;fill:#ffffff;fill-opacity:1;stroke:#000000;stroke-width:1.75748;stroke-dasharray:none;stroke-dashoffset:0;stroke-opacity:1"><tspan
         x="217.86133"
         y="368.78708"
         id="tspan2946"><tspan
           style="font-style:italic;font-weight:bold;font-family:Arial;-inkscape-font-specification:'Arial Bold Italic'"
           id="tspan2944">Shopi</tspan></tspan></text>
    <path
       style="fill:#8234ba;fill-opacity:0.458647;stroke:#532451;stroke-width:0.796736;stroke-dasharray:none;stroke-dashoffset:0;stroke-opacity:1;paint-order:normal"
       d="m 118.88569,118.52264 27.35891,2.41242"
       id="path223-8-6"
       sodipodi:nodetypes="cc" />
    <text
       xml:space="preserve"
       transform="matrix(0.26458333,0,0,0.26458333,76.87949,107.35413)"
       id="text218-9-3-7"
       style="font-size:53.3333px;line-height:0;font-family:sans-serif;-inkscape-font-specification:sans-serif;text-align:start;letter-spacing:0.85px;writing-mode:lr-tb;direction:ltr;white-space:pre;shape-inside:url(#rect218-7-7-7);display:inline;fill:#ffffff;fill-opacity:1;stroke:#000000;stroke-width:1.75748;stroke-dasharray:none;stroke-dashoffset:0;stroke-opacity:1"
       inkscape:export-filename="text218-9-3-7.png"
       inkscape:export-xdpi="96"
       inkscape:export-ydpi="96"><tspan
         x="217.86133"
         y="368.78708"
         id="tspan2950"><tspan
           style="font-style:italic;font-weight:bold;font-family:Arial;-inkscape-font-specification:'Arial Bold Italic'"
           id="tspan2948">Shopi</tspan></tspan></text>
    <path
       style="fill:#8234ba;fill-opacity:0.458647;stroke:#532451;stroke-width:0.796736;stroke-dasharray:none;stroke-dashoffset:0;stroke-opacity:1;paint-order:normal"
       d="m 135.99637,206.79952 27.35891,2.41242"
       id="path223-8-6-4"
       sodipodi:nodetypes="cc" />
    <rect
       style="fill:#ce00db;fill-opacity:0;stroke:#000000;stroke-width:0.948;stroke-dasharray:none;stroke-dashoffset:0;stroke-opacity:1"
       id="rect78-5-5"
       width="24.38376"
       height="17.032082"
       x="159.70627"
       y="102.55475" />
    <path
       id="text8-5-8"
       style="font-size:28.2222px;line-height:0;-inkscape-font-specification:sans-serif;letter-spacing:0.224896px;white-space:pre;inline-size:20.4323;fill:#ffffff;fill-opacity:1;stroke:url(#linearGradient234);stroke-width:1.2004;stroke-dasharray:none"
       d="m 165.66467,97.350563 c -0.0557,0.03663 -0.11101,0.07334 -0.16635,0.109958 -0.0175,0.01246 -0.035,0.02504 -0.0525,0.03754 0.0885,0.06896 0.17625,0.138624 0.26312,0.209187 0.27414,0.227221 0.52563,0.472981 0.7723,0.721425 0.23045,0.245584 0.45935,0.492038 0.68755,0.739125 0.16074,0.169791 0.33211,0.331447 0.51423,0.484884 0.0154,0.01394 0.031,0.02769 0.0468,0.0413 h 9.46046 v -2.343421 z m -0.64769,0.462356 c -0.0856,0.06405 -0.17081,0.128297 -0.25554,0.193095 l -0.82542,8.745606 c 0.0963,0.0543 0.19278,0.10786 0.28969,0.16145 0.0871,-0.11119 0.22014,-0.22202 0.40481,-0.32076 0.394,-0.21063 0.749,-0.46947 1.11069,-0.71767 0.36123,-0.26525 0.71272,-0.53912 1.07273,-0.80563 0.0288,-0.0213 0.057,-0.0408 0.0854,-0.059 l 0.47817,-4.93948 c -0.0312,-0.0259 -0.0616,-0.0525 -0.0917,-0.07938 -0.19789,-0.167677 -0.38584,-0.343911 -0.5604,-0.529404 -0.2241,-0.242662 -0.4495,-0.484335 -0.67553,-0.725716 -0.23374,-0.23545 -0.47102,-0.468308 -0.73054,-0.683878 -0.0996,-0.08099 -0.20036,-0.160446 -0.30235,-0.239224 z m 5.60974,7.622971 c -0.80601,0 -1.54279,0.0388 -2.21062,0.11693 -0.24833,0.029 -0.47743,0.0568 -0.68755,0.0831 -0.0481,0.0509 -0.10587,0.10191 -0.17394,0.15233 -0.37057,0.27433 -0.73174,0.55754 -1.10499,0.82924 -0.41288,0.28328 -0.8177,0.58177 -1.27957,0.80671 0.1844,0.0983 0.36909,0.19647 0.55345,0.29446 0.13083,0.0679 0.2614,0.13587 0.39215,0.20383 0.37669,-0.0576 0.80961,-0.11513 1.29855,-0.17271 0.82904,-0.0976 1.56645,-0.14644 2.21126,-0.14644 2.1417,0 3.70741,0.37089 4.69766,1.113 0.99025,0.72256 1.48513,1.76754 1.48513,3.13457 0,1.54279 -0.56417,2.68535 -1.6926,3.42743 -1.10539,0.72257 -2.56781,1.08347 -4.3871,1.08347 -1.08235,0 -2.22183,-0.11697 -3.41935,-0.35132 -1.17448,-0.25387 -2.17665,-0.59538 -3.00569,-1.02501 v 2.43085 c 0.75996,0.37105 1.69283,0.65434 2.79823,0.84963 1.12842,0.19528 2.32606,0.29286 3.59266,0.29286 2.90165,0 5.15837,-0.61482 6.77039,-1.84514 1.63507,-1.24984 2.45288,-2.95894 2.45288,-5.12667 0,-1.95289 -0.74852,-3.46633 -2.24541,-4.54042 -1.49688,-1.07409 -3.51236,-1.61074 -6.04554,-1.61074 z" />
    <path
       style="fill:none;fill-rule:evenodd;stroke:#000000;stroke-width:0.264583px;stroke-linecap:butt;stroke-linejoin:miter;stroke-opacity:1"
       d="m 159.99232,103.88176 23.81163,-0.13012"
       id="path79-4-2"
       inkscape:connector-type="polyline"
       inkscape:connector-curvature="0" />
    <path
       sodipodi:type="spiral"
       style="fill:none;fill-rule:evenodd;stroke:#000000;stroke-width:0.264583"
       id="path82-9-5"
       sodipodi:cx="120.09906"
       sodipodi:cy="114.04857"
       sodipodi:expansion="1"
       sodipodi:revolution="2.8440001"
       sodipodi:radius="1.392325"
       sodipodi:argument="-17.216534"
       sodipodi:t0="0"
       d="m 120.09906,114.04857 c -0.005,0.0735 -0.10133,0.0301 -0.12215,-0.008 -0.0564,-0.10216 0.0408,-0.21247 0.13737,-0.2367 0.17265,-0.0433 0.32705,0.10358 0.35124,0.26714 0.0355,0.24004 -0.16668,0.44371 -0.3969,0.46579 -0.30686,0.0294 -0.56119,-0.22986 -0.58033,-0.52668 -0.0241,-0.37351 0.29305,-0.67906 0.65644,-0.69487 0.44011,-0.0191 0.79717,0.35625 0.80941,0.78621 0.0144,0.50668 -0.41945,0.91542 -0.91597,0.92396 -0.57324,0.01 -1.03378,-0.48267 -1.0385,-1.04574 -0.005,-0.6398 0.54587,-1.1522 1.1755,-1.15305 0.70634,-9.5e-4 1.27066,0.60909 1.26759,1.30527 -0.001,0.27076 -0.0856,0.53825 -0.2377,0.76205"
       transform="translate(58.857985,8.7979181)" />
    <path
       sodipodi:type="spiral"
       style="fill:none;fill-rule:evenodd;stroke:#000000;stroke-width:0.264583"
       id="path83-1-4"
       sodipodi:cx="105.33065"
       sodipodi:cy="114.04857"
       sodipodi:expansion="1"
       sodipodi:revolution="2.8440001"
       sodipodi:radius="1.3724228"
       sodipodi:argument="-17.320829"
       sodipodi:t0="0"
       d="m 105.33065,114.04857 c 0.003,0.0725 -0.0963,0.0399 -0.12053,0.005 -0.0658,-0.0944 0.0182,-0.21248 0.11038,-0.24614 0.16481,-0.0602 0.33125,0.068 0.37176,0.22585 0.0594,0.23167 -0.11788,0.45209 -0.34131,0.49736 -0.29781,0.0603 -0.57375,-0.16775 -0.62298,-0.45677 -0.0619,-0.36371 0.21761,-0.69579 0.57224,-0.74858 0.4295,-0.0639 0.81806,0.26744 0.87419,0.68769 0.0661,0.49525 -0.31728,0.94048 -0.80316,0.9998 -0.56097,0.0685 -1.06299,-0.36709 -1.12541,-0.91862 -0.0709,-0.62667 0.41692,-1.18557 1.03408,-1.25101 0.69237,-0.0734 1.3082,0.46672 1.37663,1.14954 0.0266,0.26556 -0.0287,0.53646 -0.15483,0.77146"
       transform="translate(58.857985,8.7979181)" />
    <path
       style="fill:#ff6200;fill-opacity:1;fill-rule:evenodd;stroke:#000000;stroke-width:0.264583px;stroke-linecap:butt;stroke-linejoin:miter;stroke-opacity:1"
       d="m 158.00803,121.74048 3.57825,2.47224"
       id="path85-2-4"
       inkscape:connector-type="polyline"
       inkscape:connector-curvature="0" />
    <path
       style="fill:none;fill-rule:evenodd;stroke:#000000;stroke-width:0.264583px;stroke-linecap:butt;stroke-linejoin:miter;stroke-opacity:1"
       d="m 158.91886,125.05849 2.99271,0.45541"
       id="path86-5-1"
       inkscape:connector-type="polyline"
       inkscape:connector-curvature="0" />
    <path
       style="fill:none;fill-rule:evenodd;stroke:#000000;stroke-width:0.264583px;stroke-linecap:butt;stroke-linejoin:miter;stroke-opacity:1"
       d="m 174.20774,122.06578 2.14695,2.27706"
       id="path87-08-6"
       inkscape:connector-type="polyline"
       inkscape:connector-curvature="0" />
    <path
       style="fill:#ce00db;fill-opacity:0;stroke:#000000;stroke-width:1.065;stroke-dasharray:none;stroke-dashoffset:0;stroke-opacity:1"
       id="path80-3-1"
       sodipodi:type="arc"
       sodipodi:cx="164.41635"
       sodipodi:cy="122.94407"
       sodipodi:rx="2.2445383"
       sodipodi:ry="2.2445383"
       sodipodi:start="5.8354861"
       sodipodi:end="5.4905534"
       sodipodi:arc-type="arc"
       d="m 166.43968,121.97242 a 2.2445383,2.2445383 0 0 1 -0.88103,2.90378 2.2445383,2.2445383 0 0 1 -2.96886,-0.62767 2.2445383,2.2445383 0 0 1 0.36963,-3.01189 2.2445383,2.2445383 0 0 1 3.03254,0.10886"
       sodipodi:open="true" />
    <path
       style="fill:#ce00db;fill-opacity:0;stroke:#000000;stroke-width:1.065;stroke-dasharray:none;stroke-dashoffset:0;stroke-opacity:1"
       id="path80-8-9-6"
       sodipodi:type="arc"
       sodipodi:cx="179.22882"
       sodipodi:cy="122.91881"
       sodipodi:rx="2.2445383"
       sodipodi:ry="2.2445383"
       sodipodi:start="5.8354861"
       sodipodi:end="5.4905534"
       sodipodi:arc-type="arc"
       d="m 181.25215,121.94716 a 2.2445383,2.2445383 0 0 1 -0.88103,2.90377 2.2445383,2.2445383 0 0 1 -2.96886,-0.62766 2.2445383,2.2445383 0 0 1 0.36963,-3.01189 2.2445383,2.2445383 0 0 1 3.03254,0.10886"
       sodipodi:open="true" />
    <path
       style="fill:none;fill-rule:evenodd;stroke:#000000;stroke-width:0.264583px;stroke-linecap:butt;stroke-linejoin:miter;stroke-opacity:1"
       d="m 172.77644,124.27778 4.03366,1.36624"
       id="path88-3-3"
       inkscape:connector-type="polyline"
       inkscape:connector-curvature="0" />
    <path
       id="text206-4-9-2"
       style="font-size:11.2889px;line-height:0;font-family:sans-serif;-inkscape-font-specification:sans-serif;text-align:start;letter-spacing:0.224896px;writing-mode:vertical-lr;direction:ltr;text-anchor:start;white-space:pre;inline-size:9.98236;fill:#000000;fill-opacity:0;stroke:#000000;stroke-width:1.09366;stroke-dasharray:none;stroke-dashoffset:0;stroke-opacity:1"
       d="m 47.036069,146.63227 c -0.75661,0 -1.37814,0.12742 -1.86397,0.3824 -0.49379,0.26249 -0.86022,0.61483 -1.09916,1.0573 -0.23893,0.44998 -0.35811,0.95244 -0.35811,1.50741 v 5.19761 h 1.06298 v -5.19761 c 0,-0.60747 0.17511,-1.10606 0.52555,-1.49604 0.34247,-0.38247 0.90022,-0.57361 1.67277,-0.57361 0.74864,0 1.31032,0.18004 1.68464,0.54002 0.36636,0.35998 0.54932,0.86631 0.54932,1.51877 v 5.20847 h 1.07539 v -5.17488 c 0,-0.89244 -0.27521,-1.61261 -0.82475,-2.16007 -0.55751,-0.53997 -1.3654,-0.80977 -2.42466,-0.80977 z"
       inkscape:export-filename="text206-4-9-2.png"
       inkscape:export-xdpi="96"
       inkscape:export-ydpi="96" />
    <rect
       style="fill:#ce00db;fill-opacity:0;stroke:#000000;stroke-width:0.948;stroke-dasharray:none;stroke-dashoffset:0;stroke-opacity:1"
       id="rect78-5-5-5"
       width="24.38376"
       height="17.032082"
       x="49.13847"
       y="155.04907" />
    <path
       id="text8-5-8-3"
       style="font-size:28.2222px;line-height:0;-inkscape-font-specification:sans-serif;letter-spacing:0.224896px;white-space:pre;inline-size:20.4323;fill:#ffffff;fill-opacity:1;stroke:url(#linearGradient237);stroke-width:1.2004;stroke-dasharray:none"
       d="m 55.096859,149.8449 c -0.0557,0.0366 -0.11101,0.0733 -0.16635,0.10996 -0.0175,0.0125 -0.035,0.025 -0.0525,0.0375 0.0885,0.069 0.17625,0.13863 0.26312,0.20919 0.27414,0.22722 0.52563,0.47298 0.7723,0.72142 0.23045,0.24559 0.45935,0.49204 0.68755,0.73913 0.16074,0.16979 0.33211,0.33145 0.51423,0.48488 0.0154,0.0139 0.031,0.0277 0.0468,0.0413 h 9.46046 v -2.34342 z m -0.64769,0.46236 c -0.0856,0.064 -0.17081,0.1283 -0.25554,0.19309 l -0.82542,8.74561 c 0.0963,0.0543 0.19278,0.10786 0.28969,0.16145 0.0871,-0.11119 0.22014,-0.22202 0.40481,-0.32076 0.394,-0.21063 0.749,-0.46947 1.11069,-0.71767 0.36123,-0.26525 0.71272,-0.53912 1.07273,-0.80563 0.0288,-0.0213 0.057,-0.0408 0.0854,-0.059 l 0.47817,-4.93948 c -0.0312,-0.0259 -0.0616,-0.0525 -0.0917,-0.0794 -0.19789,-0.16768 -0.38584,-0.34391 -0.5604,-0.52941 -0.2241,-0.24266 -0.4495,-0.48433 -0.67553,-0.72571 -0.23374,-0.23545 -0.47102,-0.46831 -0.73054,-0.68388 -0.0996,-0.081 -0.20036,-0.16045 -0.30235,-0.23923 z m 5.60974,7.62297 c -0.80601,0 -1.54279,0.0388 -2.21062,0.11693 -0.24833,0.029 -0.47743,0.0568 -0.68755,0.0831 -0.0481,0.0509 -0.10587,0.10191 -0.17394,0.15233 -0.37057,0.27433 -0.73174,0.55754 -1.10499,0.82924 -0.41288,0.28328 -0.8177,0.58177 -1.27957,0.80671 0.1844,0.0983 0.36909,0.19647 0.55345,0.29446 0.13083,0.0679 0.2614,0.13587 0.39215,0.20383 0.37669,-0.0576 0.80961,-0.11513 1.29855,-0.17271 0.82904,-0.0976 1.56645,-0.14644 2.21126,-0.14644 2.1417,0 3.70741,0.37089 4.69766,1.113 0.99025,0.72256 1.48513,1.76754 1.48513,3.13457 0,1.54279 -0.56417,2.68535 -1.6926,3.42743 -1.10539,0.72257 -2.56781,1.08347 -4.3871,1.08347 -1.08235,0 -2.22183,-0.11697 -3.41935,-0.35132 -1.17448,-0.25387 -2.17665,-0.59538 -3.00569,-1.02501 v 2.43085 c 0.75996,0.37105 1.69283,0.65434 2.79823,0.84963 1.12842,0.19528 2.32606,0.29286 3.59266,0.29286 2.90165,0 5.15837,-0.61482 6.77039,-1.84514 1.63507,-1.24984 2.45288,-2.95894 2.45288,-5.12667 0,-1.95289 -0.74852,-3.46633 -2.24541,-4.54042 -1.49688,-1.07409 -3.51236,-1.61074 -6.04554,-1.61074 z" />
    <path
       style="fill:none;fill-rule:evenodd;stroke:#000000;stroke-width:0.264583px;stroke-linecap:butt;stroke-linejoin:miter;stroke-opacity:1"
       d="m 49.424509,156.3761 23.81163,-0.13012"
       id="path79-4-2-6"
       inkscape:connector-type="polyline"
       inkscape:connector-curvature="0" />
    <path
       sodipodi:type="spiral"
       style="fill:none;fill-rule:evenodd;stroke:#000000;stroke-width:0.264583"
       id="path82-9-5-1"
       sodipodi:cx="120.09906"
       sodipodi:cy="114.04857"
       sodipodi:expansion="1"
       sodipodi:revolution="2.8440001"
       sodipodi:radius="1.392325"
       sodipodi:argument="-17.216534"
       sodipodi:t0="0"
       d="m 120.09906,114.04857 c -0.005,0.0735 -0.10133,0.0301 -0.12215,-0.008 -0.0564,-0.10216 0.0408,-0.21247 0.13737,-0.2367 0.17265,-0.0433 0.32705,0.10358 0.35124,0.26714 0.0355,0.24004 -0.16668,0.44371 -0.3969,0.46579 -0.30686,0.0294 -0.56119,-0.22986 -0.58033,-0.52668 -0.0241,-0.37351 0.29305,-0.67906 0.65644,-0.69487 0.44011,-0.0191 0.79717,0.35625 0.80941,0.78621 0.0144,0.50668 -0.41945,0.91542 -0.91597,0.92396 -0.57324,0.01 -1.03378,-0.48267 -1.0385,-1.04574 -0.005,-0.6398 0.54587,-1.1522 1.1755,-1.15305 0.70634,-9.5e-4 1.27066,0.60909 1.26759,1.30527 -0.001,0.27076 -0.0856,0.53825 -0.2377,0.76205"
       transform="translate(-51.709822,61.29226)" />
    <path
       sodipodi:type="spiral"
       style="fill:none;fill-rule:evenodd;stroke:#000000;stroke-width:0.264583"
       id="path83-1-4-8"
       sodipodi:cx="105.33065"
       sodipodi:cy="114.04857"
       sodipodi:expansion="1"
       sodipodi:revolution="2.8440001"
       sodipodi:radius="1.3724228"
       sodipodi:argument="-17.320829"
       sodipodi:t0="0"
       d="m 105.33065,114.04857 c 0.003,0.0725 -0.0963,0.0399 -0.12053,0.005 -0.0658,-0.0944 0.0182,-0.21248 0.11038,-0.24614 0.16481,-0.0602 0.33125,0.068 0.37176,0.22585 0.0594,0.23167 -0.11788,0.45209 -0.34131,0.49736 -0.29781,0.0603 -0.57375,-0.16775 -0.62298,-0.45677 -0.0619,-0.36371 0.21761,-0.69579 0.57224,-0.74858 0.4295,-0.0639 0.81806,0.26744 0.87419,0.68769 0.0661,0.49525 -0.31728,0.94048 -0.80316,0.9998 -0.56097,0.0685 -1.06299,-0.36709 -1.12541,-0.91862 -0.0709,-0.62667 0.41692,-1.18557 1.03408,-1.25101 0.69237,-0.0734 1.3082,0.46672 1.37663,1.14954 0.0266,0.26556 -0.0287,0.53646 -0.15483,0.77146"
       transform="translate(-51.709822,61.29226)" />
    <path
       style="fill:#ff6200;fill-opacity:1;fill-rule:evenodd;stroke:#000000;stroke-width:0.264583px;stroke-linecap:butt;stroke-linejoin:miter;stroke-opacity:1"
       d="m 47.440219,174.23482 3.57825,2.47224"
       id="path85-2-4-6"
       inkscape:connector-type="polyline"
       inkscape:connector-curvature="0" />
    <path
       style="fill:none;fill-rule:evenodd;stroke:#000000;stroke-width:0.264583px;stroke-linecap:butt;stroke-linejoin:miter;stroke-opacity:1"
       d="m 48.351049,177.55283 2.99271,0.45541"
       id="path86-5-1-2"
       inkscape:connector-type="polyline"
       inkscape:connector-curvature="0" />
    <path
       style="fill:none;fill-rule:evenodd;stroke:#000000;stroke-width:0.264583px;stroke-linecap:butt;stroke-linejoin:miter;stroke-opacity:1"
       d="m 63.639929,174.56012 2.14695,2.27706"
       id="path87-08-6-1"
       inkscape:connector-type="polyline"
       inkscape:connector-curvature="0" />
    <path
       style="fill:#ce00db;fill-opacity:0;stroke:#000000;stroke-width:1.065;stroke-dasharray:none;stroke-dashoffset:0;stroke-opacity:1"
       id="path80-3-1-4"
       sodipodi:type="arc"
       sodipodi:cx="53.848553"
       sodipodi:cy="175.4384"
       sodipodi:rx="2.2445383"
       sodipodi:ry="2.2445383"
       sodipodi:start="5.8354861"
       sodipodi:end="5.4905534"
       sodipodi:arc-type="arc"
       d="m 55.871882,174.46676 a 2.2445383,2.2445383 0 0 1 -0.881034,2.90377 2.2445383,2.2445383 0 0 1 -2.968861,-0.62767 2.2445383,2.2445383 0 0 1 0.369639,-3.01189 2.2445383,2.2445383 0 0 1 3.032533,0.10886"
       sodipodi:open="true" />
    <path
       style="fill:#ce00db;fill-opacity:0;stroke:#000000;stroke-width:1.065;stroke-dasharray:none;stroke-dashoffset:0;stroke-opacity:1"
       id="path80-8-9-6-6"
       sodipodi:type="arc"
       sodipodi:cx="68.661018"
       sodipodi:cy="175.41313"
       sodipodi:rx="2.2445383"
       sodipodi:ry="2.2445383"
       sodipodi:start="5.8354861"
       sodipodi:end="5.4905534"
       sodipodi:arc-type="arc"
       d="m 70.684347,174.44149 a 2.2445383,2.2445383 0 0 1 -0.881033,2.90377 2.2445383,2.2445383 0 0 1 -2.968861,-0.62767 2.2445383,2.2445383 0 0 1 0.369639,-3.01189 2.2445383,2.2445383 0 0 1 3.032532,0.10886"
       sodipodi:open="true" />
    <path
       style="fill:none;fill-rule:evenodd;stroke:#000000;stroke-width:0.264583px;stroke-linecap:butt;stroke-linejoin:miter;stroke-opacity:1"
       d="m 62.208629,176.77212 4.03366,1.36624"
       id="path88-3-3-2"
       inkscape:connector-type="polyline"
       inkscape:connector-curvature="0" />
  </g>
</svg>
